<?xml version="1.0" standalone="no"?>
<!DOCTYPE svg PUBLIC "-//W3C//DTD SVG 1.1//EN" "http://www.w3.org/Graphics/SVG/1.1/DTD/svg11.dtd" >
<svg xmlns="http://www.w3.org/2000/svg">
<metadata>Generated by IcoMoon</metadata>
<defs>
<font id="icomoon" horiz-adv-x="1024">
<font-face units-per-em="1024" ascent="960" descent="-64" />
<missing-glyph horiz-adv-x="1024" />
<glyph unicode="&#x20;" horiz-adv-x="512" d="" />
<glyph unicode="&#xe900;" glyph-name="arrows" d="M689.55 797.181c-13.95 14.438-37.168 14.438-51.606 0-13.95-13.95-13.95-37.168 0-51.086l261.674-261.674h-863.49c-20.129-0.033-36.128-16.032-36.128-36.16s15.999-36.648 36.128-36.648h863.49l-261.674-261.187c-13.95-14.438-13.95-37.689 0-51.606 14.438-14.438 37.689-14.438 51.606 0l323.622 323.622c14.438 13.95 14.438 37.168 0 51.086l-323.622 323.654z" />
<glyph unicode="&#xe901;" glyph-name="arrows-1" d="M1010.055 481.668l-304.726 304.726c-18.592 18.592-48.745 18.592-67.337 0-18.596-18.596-18.596-48.741 0-67.337l223.444-223.444h-813.823c-26.294 0-47.613-21.319-47.613-47.613 0-26.29 21.319-47.613 47.613-47.613h813.823l-223.436-223.444c-18.596-18.596-18.596-48.741 0-67.337 9.294-9.29 21.483-13.945 33.668-13.945s24.37 4.655 33.668 13.945l304.718 304.726c18.596 18.596 18.596 48.741 0 67.337z" />
<glyph unicode="&#xe902;" glyph-name="arrows-2" d="M550.4 736l224-224h-774.4v-128h774.4l-224-224 89.6-89.6 384 377.6-384 377.6z" />
<glyph unicode="&#xe903;" glyph-name="arrows-3" d="M334.018 797.137c14.436 14.436 37.164 14.436 51.6 0 13.949-13.949 13.949-37.164 0-51.080l-261.641-261.641h863.38c20.126 0 36.643-15.997 36.643-36.123s-16.517-36.643-36.643-36.643h-863.38l261.641-261.153c13.949-14.436 13.949-37.684 0-51.6-14.436-14.436-37.164-14.436-51.6 0l-323.581 323.581c-13.949 13.949-13.949 37.164 0 51.080l323.581 323.581z" />
<glyph unicode="&#xe904;" d="M126.070 44.842c-16.958 0-30.704 13.748-30.704 30.704v766.382c0.002 65.106 52.968 118.072 118.074 118.072h562.138c65.106 0 118.072-52.966 118.072-118.072v-511.342c0-16.954-13.746-30.704-30.704-30.704s-30.704 13.748-30.704 30.704v511.342c0 31.246-25.42 56.666-56.666 56.666h-562.136c-31.246 0-56.666-25.42-56.666-56.666v-766.382c0-16.958-13.75-30.704-30.704-30.704z" />
<glyph unicode="&#xe905;" d="M654.094 662.066h-100.51v90.11h-114.132v-90.11h-100.51v-114.134h100.51v-204.004h114.132v204.004h100.51z" />
<glyph unicode="&#xe906;" d="M553.584 313.226h-114.13c-16.958 0-30.704 13.748-30.704 30.704v173.302h-69.806c-16.958 0-30.704 13.748-30.704 30.704v114.132c0 16.954 13.746 30.704 30.704 30.704h69.806v59.408c0 16.954 13.746 30.704 30.704 30.704h114.13c16.958 0 30.704-13.748 30.704-30.704v-59.41h69.81c16.958 0 30.704-13.748 30.704-30.704v-114.132c0-16.954-13.746-30.704-30.704-30.704h-69.81v-173.302c0-16.956-13.746-30.702-30.704-30.702zM470.154 374.632h52.724v173.302c0 16.954 13.746 30.704 30.704 30.704h69.81v52.726h-69.81c-16.958 0-30.704 13.748-30.704 30.704v59.41h-52.724v-59.41c0-16.954-13.746-30.704-30.704-30.704h-69.806v-52.726h69.806c16.958 0 30.704-13.748 30.704-30.704v-173.302z" />
<glyph unicode="&#xe907;" d="M545.252-33.296h352.678c-51.676 0-93.572 41.894-93.572 93.572v13.384c0 51.676 41.894 93.572 93.572 93.572h-671.598c-55.374 0-100.262-44.888-100.262-100.262v0c0-55.374 44.888-100.262 100.262-100.262l318.92-0.004z" />
<glyph unicode="&#xe908;" d="M897.93-64h-671.598c-72.214 0-130.964 58.75-130.964 130.964s58.75 130.964 130.964 130.964h671.598c16.958 0 30.704-13.748 30.704-30.704 0-16.954-13.746-30.704-30.704-30.704-34.664 0-62.868-28.204-62.868-62.87v-13.38c0-34.664 28.204-62.868 62.868-62.868 16.958 0 30.704-13.748 30.704-30.704-0.002-16.952-13.746-30.698-30.704-30.698zM226.332 136.526c-38.354 0-69.558-31.204-69.558-69.558s31.204-69.558 69.558-69.558h564.428c-10.866 18.452-17.104 39.948-17.104 62.868v13.38c0 22.926 6.236 44.416 17.104 62.87l-564.428-0.002z" />
<glyph unicode="&#xe909;" d="M801.494 36.264h-267.072c-16.958 0-30.704 13.748-30.704 30.704 0 16.954 13.746 30.704 30.704 30.704h267.072c16.958 0 30.704-13.748 30.704-30.704 0-16.954-13.746-30.704-30.704-30.704z" />
<glyph unicode="&#xe90a;" d="M743.806 586.288v-43.034c-38.86 0-92.214 34.686-148.55 34.686-33.204 0-54.032-13.714-66.534-27.404h-16.722l-97.090 189.224 328.896-153.472z" />
<glyph unicode="&#xe90b;" d="M512 739.756v-189.224h-16.724c-12.5 13.69-33.326 27.404-66.534 27.404-56.338 0-109.69-34.686-148.55-34.686v43.034l231.808 153.472z" />
<glyph unicode="&#xe90c;" d="M183.476 748.136c-27.138 0-49.134-22-49.134-49.134v-322.418h98.27v322.418c-0.002 27.134-22.002 49.134-49.136 49.134z" />
<glyph unicode="&#xe90d;" d="M165.094 421.592v277.41c0 27.138-22 49.134-49.136 49.134s-49.134-22-49.134-49.134l0.274-309.774c0.010-11.214 4.514-28.386 10.010-38.16l194.636-315.184c5.496-9.774 9.992-26.948 9.992-38.16v-61.724h196.51v105.776l-82.37 201.424-230.782 178.392z" />
<glyph unicode="&#xe90e;" d="M478.244 165.9c0 33.642-19.462 80.628-43.248 104.416l-186.022 186.022c-19.188 19.188-50.3 19.188-69.488 0s-19.188-50.3 0-69.488l150.158-150.158v-44.128c0-83.278 65.322-150.786 148.6-150.786v124.122z" />
<glyph unicode="&#xe90f;" d="M840.524 748.136c27.138 0 49.134-22 49.134-49.134v-322.418h-98.27v322.418c0.002 27.134 22.002 49.134 49.136 49.134z" />
<glyph unicode="&#xe910;" d="M858.906 421.592v277.41c0 27.138 22 49.134 49.136 49.134 27.138 0 49.134-22 49.134-49.134l-0.274-309.774c-0.008-11.214-4.514-28.386-10.010-38.16l-194.636-315.184c-5.496-9.774-9.992-26.948-9.992-38.16v-61.724h-196.508v105.776l82.368 201.424 230.782 178.392z" />
<glyph unicode="&#xe911;" d="M545.756 165.9c0 33.642 19.462 80.628 43.248 104.416l186.022 186.022c19.188 19.188 50.3 19.188 69.488 0s19.188-50.3 0-69.488l-150.158-150.158v-44.128c0-83.278-65.322-150.786-148.6-150.786v124.122z" />
<glyph unicode="&#xe912;" d="M595.256 960c56.338 0 109.69-34.686 148.55-34.686v-339.026c-38.86 0-92.214 34.686-148.55 34.686-66.434 0-83.256-54.808-83.256-54.808l-72.818 144.448 72.818 194.578c0 0 16.82 54.808 83.256 54.808z" />
<glyph unicode="&#xe913;" d="M428.744 960c-56.338 0-109.69-34.686-148.55-34.686v-339.026c38.86 0 92.212 34.686 148.55 34.686 66.434 0 83.256-54.808 83.256-54.808v339.026c0 0-16.82 54.808-83.256 54.808z" />
<glyph unicode="&#xe914;" glyph-name="business" d="M713.445 632.789c-37.781 0-71.908-16.025-96.001-41.67-24.093 25.645-58.223 41.67-96.008 41.67-72.832 0-132.086-59.537-132.086-132.71 0-119.653 188.447-232.938 209.941-245.46 5.61-3.269 11.878-4.906 18.156-4.906 6.272 0 12.547 1.638 18.16 4.906 21.483 12.526 209.917 125.807 209.917 245.46-0.003 73.173-59.251 132.71-132.079 132.71zM617.448 328.027c-66.76 42.587-155.982 117.843-155.982 172.049 0 33.413 26.907 60.599 59.975 60.599 33.058 0 59.954-27.186 59.954-60.599 0-19.911 16.146-36.057 36.057-36.057s36.057 16.146 36.057 36.057c0 33.413 26.886 60.599 59.94 60.599 33.065 0 59.964-27.186 59.964-60.599-0.007-54.203-89.216-129.458-155.965-172.049zM1024 775.211c0 19.911-16.146 36.054-36.057 36.054s-36.054-16.143-36.054-36.054c0-23.211-14.567-49.48-28.6-68.967-88.281 100-226.469 164.516-381.542 164.516-35.192 0-70.18-3.334-104.327-9.933-62.633 68.553-158.968 69.425-163.385 69.425h-0.010c-9.557 0-18.732-3.799-25.49-10.557-6.765-6.765-10.564-15.936-10.564-25.5v-117.822c-54.893-39.050-99.349-88.123-130.12-143.584h-71.794c-19.911 0-36.057-16.146-36.057-36.054v-297.467c0-19.908 16.146-36.054 36.057-36.054h71.787c18.66-33.661 42.325-64.926 70.632-93.301v-168.108c0-19.911 16.146-36.057 36.057-36.057h178.479c19.911 0 36.057 16.146 36.057 36.057v35.026c36.719-7.699 74.452-11.592 112.678-11.592 38.195 0 75.924 3.896 112.674 11.612v-35.047c0-19.911 16.146-36.057 36.057-36.057h178.479c19.911 0 36.057 16.146 36.057 36.057v168.050c76.848 77.052 118.984 175.238 118.984 278.145 0 71.483-20.37 138.864-56.251 197.96 20.687 24.621 56.251 74.849 56.251 129.252zM844.338 211.473c-7.292-6.823-11.433-16.356-11.433-26.345v-147.273h-106.368v45.47c0 11.433-5.423 22.194-14.615 28.989-9.195 6.803-21.063 8.837-32.003 5.485-44.301-13.574-90.784-20.452-138.168-20.452-47.442 0-93.925 6.871-138.171 20.428-10.933 3.348-22.804 1.31-31.999-5.485-9.195-6.803-14.619-17.556-14.619-28.989v-45.449h-106.365v147.325c0 9.981-4.141 19.522-11.433 26.341-32.751 30.62-58.623 65.402-76.9 103.376-6.006 12.485-18.632 20.421-32.489 20.421h-57.665v225.352h57.661c13.853 0 26.483 7.937 32.489 20.421 27.689 57.541 73.145 108.030 131.444 145.998 10.219 6.658 16.381 18.025 16.381 30.217v95.573c26.503-6.444 61.564-20.752 83.485-52.486 8.454-12.233 23.559-18.015 38.022-14.577 16.481 3.924 33.258 6.916 50.204 9.044-3.686-5.658-5.851-12.398-5.851-19.653 0-19.911 16.146-36.057 36.057-36.057h118.987c19.911 0 36.054 16.146 36.054 36.057 0 2.351-0.238 4.644-0.669 6.868 165.405-45.204 285.52-177.866 285.52-334.079-0.007-87.705-38.202-171.708-107.558-236.52zM274.018 573.297c-9.481 0-18.749-3.855-25.493-10.561-6.706-6.709-10.561-16.015-10.561-25.497s3.855-18.784 10.561-25.49c6.706-6.706 16.012-10.568 25.493-10.568 9.519 0 18.784 3.862 25.49 10.568 6.744 6.703 10.568 16.008 10.568 25.49s-3.824 18.784-10.568 25.497c-6.706 6.706-16.008 10.561-25.49 10.561z" />
<glyph unicode="&#xe915;" glyph-name="business-1" d="M787.356 581.075c-47.018 79.544-101.045 137.612-158.172 171.356 55.058 37.578 91.284 100.824 91.284 172.387-0.003 19.432-15.753 35.181-35.181 35.181h-346.577c-19.428 0-35.181-15.75-35.181-35.181 0-71.563 36.226-134.809 91.288-172.387-57.127-33.744-111.154-91.812-158.172-171.356-64.643-109.351-106.406-246.663-106.406-349.812 0-101 40.598-180.979 117.415-231.29 64.805-42.449 153.741-63.974 264.347-63.974s199.542 21.525 264.351 63.974c76.814 50.31 117.419 130.289 117.419 231.29-0.003 103.148-41.77 240.461-106.413 349.812zM378.425 889.641h267.143c-15.588-59.223-69.563-103.017-133.572-103.017s-117.984 43.794-133.572 103.017zM737.794 58.832c-52.403-34.326-130.486-52.472-225.794-52.472s-173.39 18.146-225.794 52.472c-57.606 37.726-85.609 94.132-85.609 172.432 0 91.46 37.926 214.716 96.615 314.009 64.233 108.668 142.519 170.987 214.788 170.987s150.556-62.319 214.788-170.987c58.689-99.294 96.615-222.549 96.615-314.009 0-78.3-28.003-134.706-85.609-172.432zM606.987 471.273c-37.426 0-71.215-15.96-94.984-41.46-23.769 25.5-57.558 41.46-94.991 41.46-71.787 0-130.193-58.682-130.193-130.81 0-118.112 186.237-230.066 207.472-242.436 5.472-3.193 11.592-4.786 17.715-4.786 6.12 0 12.243 1.593 17.718 4.786 21.232 12.381 207.448 124.332 207.448 242.436 0 72.128-58.399 130.81-130.186 130.81zM512.052 169.675c-59.826 38.478-154.865 115.381-154.865 170.784 0 33.333 26.838 60.45 59.83 60.45 32.978 0 59.813-27.117 59.813-60.45 0-19.428 15.753-35.181 35.181-35.181s35.181 15.753 35.181 35.181c0 33.333 26.824 60.45 59.799 60.45 32.985 0 59.823-27.117 59.823-60.45-0.003-53.882-88.595-128.607-154.762-170.784z" />
<glyph unicode="&#xe916;" d="M0 603.826v-567.652c0-55.238 44.936-100.174 100.174-100.174h823.652c55.238 0 100.174 44.936 100.174 100.174v567.652h-1024z" />
<glyph unicode="&#xe917;" d="M512-64h411.826c55.238 0 100.174 44.936 100.174 100.174v567.652h-512v-667.826z" />
<glyph unicode="&#xe918;" d="M512 69.162c-7.74 0-15.478 2.684-21.728 8.042-25.836 22.14-49.99 41.716-72.054 59.596-88.098 71.412-151.75 123.022-151.75 206.63 0 82.576 61.262 147.26 139.466 147.26 50.89 0 84.652-26.118 106.064-53.51 21.412 27.392 55.174 53.51 106.064 53.51 78.206 0 139.466-64.686 139.466-147.26 0-83.61-63.652-135.216-151.75-206.63-22.064-17.88-46.218-37.456-72.054-59.596-6.246-5.358-13.984-8.042-21.724-8.042z" />
<glyph unicode="&#xe919;" d="M533.728 77.208c25.836 22.14 49.99 41.716 72.054 59.596 88.098 71.412 151.75 123.022 151.75 206.63 0 82.576-61.262 147.26-139.466 147.26-50.89 0-84.652-26.118-106.064-53.51v-368.022c7.738 0 15.476 2.684 21.726 8.046z" />
<glyph unicode="&#xe91a;" d="M923.826 870.956h-823.652c-55.238 0-100.174-44.936-100.174-100.174v-189.218h1024v189.218c0 55.238-44.936 100.174-100.174 100.174z" />
<glyph unicode="&#xe91b;" d="M923.826 870.956h-411.826v-289.392h512v189.218c0 55.238-44.936 100.174-100.174 100.174z" />
<glyph unicode="&#xe91c;" d="M768 692.87c-18.446 0-33.392 14.946-33.392 33.392v200.346c0 18.446 14.946 33.392 33.392 33.392s33.392-14.946 33.392-33.392v-200.348c0-18.444-14.946-33.39-33.392-33.39z" />
<glyph unicode="&#xe91d;" d="M256 692.87c-18.446 0-33.392 14.946-33.392 33.392v200.346c0 18.446 14.946 33.392 33.392 33.392s33.392-14.946 33.392-33.392v-200.348c0-18.444-14.946-33.39-33.392-33.39z" />
<glyph unicode="&#xe91e;" glyph-name="circle" d="M302.080 545.28l-71.68-71.68 230.4-230.4 512 512-71.68 71.68-440.32-440.32-158.72 158.72zM921.6 448c0-225.28-184.32-409.6-409.6-409.6s-409.6 184.32-409.6 409.6 184.32 409.6 409.6 409.6c40.96 0 76.8-5.12 112.64-15.36l81.922 81.92c-61.442 20.48-128.002 35.84-194.562 35.84-281.6 0-512-230.4-512-512s230.4-512 512-512 512 230.4 512 512h-102.4z" />
<glyph unicode="&#xe91f;" glyph-name="clock" d="M488.721 471.345c0-12.876 10.436-23.246 23.268-23.246s23.268 10.436 23.268 23.246c0.022 27.233 9.695 53.704 27.255 74.533 39.064 46.319 68.345 96.537 86.886 149.261 2.505 7.124 1.416 15.011-2.941 21.177-4.379 6.166-11.438 9.826-18.998 9.826h-230.962c-7.56 0-14.641-3.66-19.020-9.826-4.357-6.166-5.447-14.052-2.941-21.177 18.584-52.724 47.822-102.942 86.886-149.261 17.582-20.828 27.277-47.321 27.299-74.533zM535.257 378.075c0 12.854-10.436 23.246-23.268 23.246s-23.268-10.436-23.268-23.246c-0.022-33.595-20.087-66.82-56.493-93.77-77.866-57.495-136.146-119.958-173.227-185.623-4.074-7.233-4.009-16.035 0.196-23.138 4.139-7.168 11.808-11.547 20.087-11.547h465.453c8.257 0 15.904 4.379 20.087 11.547 4.161 7.102 4.227 15.904 0.174 23.138-37.059 65.665-95.361 128.128-173.205 185.623-36.449 26.95-56.515 60.175-56.537 93.77zM919.227 29.073h-13.922c-15.991 181.113-122.049 320.157-204.491 418.916 82.463 98.738 188.477 237.803 204.534 418.916h13.922c25.708 0 46.537 20.85 46.537 46.558s-20.828 46.537-46.537 46.537h-814.542c-25.708 0-46.537-20.85-46.537-46.537 0-25.708 20.828-46.558 46.537-46.558h13.922c16.013-181.135 122.028-320.2 204.491-418.916-82.441-98.738-188.477-237.781-204.512-418.916h-13.9c-25.708 0-46.537-20.806-46.537-46.515 0-25.73 20.828-46.58 46.537-46.58h814.542c25.708 0 46.537 20.85 46.537 46.58 0 25.708-20.85 46.515-46.58 46.515zM211.942 29.073c17.495 163.64 123.88 289.655 203.38 383.818l4.248 5.033c14.641 17.32 14.641 42.68 0 60.023l-4.227 5.011c-79.478 94.184-185.907 220.199-203.401 383.861h600.095c-17.495-163.662-123.923-289.677-203.401-383.861l-4.205-5.011c-14.641-17.32-14.641-42.68 0-60.023l4.248-5.033c79.478-94.162 185.863-220.177 203.358-383.818h-600.095z" />
<glyph unicode="&#xe920;" glyph-name="clock-1" d="M663.704 391.111c0-10.473-8.49-18.963-18.963-18.963s-18.963 8.49-18.963 18.963c0 10.473 8.49 18.963 18.963 18.963s18.963-8.49 18.963-18.963zM701.63 599.704c0-10.473-8.49-18.963-18.963-18.963s-18.963 8.49-18.963 18.963c0 10.473 8.49 18.963 18.963 18.963s18.963-8.49 18.963-18.963zM777.481 599.704c0-10.473-8.49-18.963-18.963-18.963s-18.963 8.49-18.963 18.963c0 10.473 8.49 18.963 18.963 18.963s18.963-8.49 18.963-18.963zM739.556 637.63c0-10.473-8.49-18.963-18.963-18.963s-18.963 8.49-18.963 18.963c0 10.473 8.49 18.963 18.963 18.963s18.963-8.49 18.963-18.963zM777.481 675.556c0-10.473-8.49-18.963-18.963-18.963s-18.963 8.49-18.963 18.963c0 10.473 8.49 18.963 18.963 18.963s18.963-8.49 18.963-18.963zM701.63 523.852c0-10.473-8.49-18.963-18.963-18.963s-18.963 8.49-18.963 18.963c0 10.473 8.49 18.963 18.963 18.963s18.963-8.49 18.963-18.963zM663.704 561.778c0-10.473-8.49-18.963-18.963-18.963s-18.963 8.49-18.963 18.963c0 10.473 8.49 18.963 18.963 18.963s18.963-8.49 18.963-18.963zM739.556 561.778c0-10.473-8.49-18.963-18.963-18.963s-18.963 8.49-18.963 18.963c0 10.473 8.49 18.963 18.963 18.963s18.963-8.49 18.963-18.963zM663.704 334.222c0-10.473-8.49-18.963-18.963-18.963s-18.963 8.49-18.963 18.963c0 10.473 8.49 18.963 18.963 18.963s18.963-8.49 18.963-18.963zM663.704 277.333c0-10.473-8.49-18.963-18.963-18.963s-18.963 8.49-18.963 18.963c0 10.473 8.49 18.963 18.963 18.963s18.963-8.49 18.963-18.963zM663.704 220.444c0-10.473-8.49-18.963-18.963-18.963s-18.963 8.49-18.963 18.963c0 10.473 8.49 18.963 18.963 18.963s18.963-8.49 18.963-18.963zM663.704 163.556c0-10.473-8.49-18.963-18.963-18.963s-18.963 8.49-18.963 18.963c0 10.473 8.49 18.963 18.963 18.963s18.963-8.49 18.963-18.963zM663.704 106.667c0-10.473-8.49-18.963-18.963-18.963s-18.963 8.49-18.963 18.963c0 10.473 8.49 18.963 18.963 18.963s18.963-8.49 18.963-18.963zM474.074 827.259h-94.815c-20.935 0-37.926-16.991-37.926-37.926s16.991-37.926 37.926-37.926h94.815c20.935 0 37.926 16.991 37.926 37.926s-16.991 37.926-37.926 37.926zM474.074 694.519h-189.63c-20.935 0-37.926-16.991-37.926-37.926s16.991-37.926 37.926-37.926h189.63c20.935 0 37.926 16.991 37.926 37.926s-16.991 37.926-37.926 37.926zM474.074 561.778h-284.444c-20.935 0-37.926-16.991-37.926-37.926s16.991-37.926 37.926-37.926h284.444c20.935 0 37.926 16.991 37.926 37.926s-16.991 37.926-37.926 37.926zM474.074 429.037h-360.296c-20.935 0-37.926-16.991-37.926-37.926s16.991-37.926 37.926-37.926h360.296c20.935 0 37.926 16.991 37.926 37.926s-16.991 37.926-37.926 37.926zM474.074 296.296h-246.519c-20.935 0-37.926-16.991-37.926-37.926s16.991-37.926 37.926-37.926h246.519c20.935 0 37.926 16.991 37.926 37.926s-16.991 37.926-37.926 37.926zM474.074 163.556h-132.741c-20.935 0-37.926-16.991-37.926-37.926s16.991-37.926 37.926-37.926h132.741c20.935 0 37.926 16.991 37.926 37.926s-16.991 37.926-37.926 37.926zM948.148 789.333v170.667h-360.296c-20.935 0-37.926-16.991-37.926-37.926s16.991-37.926 37.926-37.926h284.444v-94.815c0-134.296-80.024-254.426-203.89-306.195-2.427-0.986-4.741-2.238-6.921-3.717-0.626-0.417-1.138-0.948-1.726-1.384-1.365-1.024-2.731-2.067-3.944-3.281-0.777-0.796-1.403-1.688-2.124-2.541-0.872-1.043-1.783-2.010-2.56-3.167-0.929-1.403-1.65-2.939-2.389-4.437-0.341-0.683-0.796-1.289-1.1-2.010-0.019-0.038-0.019-0.076-0.038-0.095-0.948-2.295-1.669-4.665-2.162-7.111-0.228-1.119-0.228-2.257-0.341-3.375-0.114-1.346-0.36-2.674-0.36-4.020s0.228-2.674 0.379-4.001c0.114-1.138 0.133-2.257 0.341-3.375 0.493-2.446 1.214-4.817 2.162-7.111 0.019-0.038 0.019-0.076 0.038-0.095 0.038-0.114 0.133-0.19 0.171-0.284 1.289-2.996 3.053-5.765 5.082-8.363 0.493-0.626 0.967-1.252 1.498-1.858 2.124-2.408 4.494-4.608 7.263-6.447 0.398-0.265 0.834-0.417 1.233-0.664 1.669-1.024 3.337-2.029 5.196-2.807 124.037-51.674 204.193-171.918 204.193-306.328v-94.815h-284.444c-20.935 0-37.926-16.991-37.926-37.926s16.991-37.926 37.926-37.926h360.296v170.667c0 139.89-70.846 267.055-185.097 341.333 114.252 74.278 185.097 201.444 185.097 341.333z" />
<glyph unicode="&#xe921;" glyph-name="clock-2" d="M808.163 620.345l14.544 8.399c-28.666 44.442-66.54 82.317-110.982 110.982l-8.399-14.544c-3.275-5.635-9.174-8.804-15.266-8.804-2.976 0-6.004 0.757-8.786 2.359-8.417 4.86-11.304 15.636-6.444 24.052l8.434 14.597c-45.833 23.718-97.195 37.91-151.638 40.498v-16.71c0-9.737-7.888-17.608-17.608-17.608s-17.608 7.871-17.608 17.608v16.71l-39.459-6.532c-32.293-5.353-63.881-14.28-94.202-26.623l-17.995-7.325 8.434-14.597c4.86-8.434 1.972-19.193-6.444-24.052-2.782-1.602-5.811-2.359-8.786-2.359-6.092 0-12.009 3.169-15.266 8.804l-8.399 14.544c-44.46-28.666-82.317-66.54-110.982-110.982l14.544-8.399c8.417-4.86 11.304-15.636 6.444-24.052-3.275-5.635-9.174-8.804-15.266-8.804-2.976 0-6.004 0.757-8.786 2.359l-14.597 8.434c-23.718-45.833-37.91-97.213-40.498-151.638h16.71c9.72 0 17.608-7.871 17.608-17.608s-7.888-17.608-17.608-17.608h-16.727c2.588-54.443 16.78-105.823 40.498-151.638l14.597 8.434c8.434 4.895 19.175 1.954 24.052-6.444 4.86-8.434 1.972-19.193-6.444-24.052l-14.544-8.399c28.666-44.442 66.54-82.317 110.982-110.982l8.399 14.544c4.86 8.417 15.583 11.322 24.052 6.444 8.417-4.86 11.304-15.636 6.444-24.052l-8.434-14.597c45.833-23.718 97.195-37.91 151.638-40.498v16.71c0 9.737 7.888 17.608 17.608 17.608s17.608-7.871 17.608-17.608v-16.71c54.443 2.571 105.805 16.78 151.638 40.498l-8.434 14.597c-4.86 8.434-1.972 19.193 6.444 24.052 8.434 4.86 19.175 1.954 24.052-6.444l8.399-14.544c44.46 28.666 82.317 66.54 110.982 110.982l-14.544 8.399c-8.417 4.86-11.304 15.636-6.444 24.052s15.601 11.357 24.052 6.444l14.597-8.434c23.718 45.833 37.91 97.213 40.498 151.638h-16.71c-9.72 0-17.608 7.871-17.608 17.608s7.888 17.608 17.608 17.608h16.71c-2.588 54.443-16.78 105.823-40.498 151.638l-14.597-8.434c-2.782-1.602-5.811-2.359-8.786-2.359-6.092 0-12.009 3.169-15.266 8.804-4.825 8.399-1.937 19.175 6.48 24.035zM705.686 411.411h-125.755c-7.871-30.285-35.216-52.823-67.931-52.823-38.843 0-70.431 31.588-70.431 70.431 0 32.733 22.538 60.060 52.823 67.931v178.578c0 9.737 7.888 17.608 17.608 17.608s17.608-7.871 17.608-17.608v-178.578c24.633-6.409 43.914-25.69 50.323-50.323h125.755c9.72 0 17.608-7.871 17.608-17.608s-7.888-17.608-17.608-17.608zM547.216 429.019c0-19.449-15.767-35.216-35.216-35.216s-35.216 15.767-35.216 35.216c0 19.449 15.767 35.216 35.216 35.216s35.216-15.767 35.216-35.216zM883.719 788.024l72.122-72.122c3.31-3.31 7.783-5.159 12.449-5.159s9.156 1.849 12.449 5.159c55.764 55.746 55.764 146.479 0 202.226-26.993 26.993-62.913 41.871-101.104 41.871s-74.094-14.879-101.104-41.871c-3.31-3.31-5.159-7.765-5.159-12.449s1.849-9.156 5.159-12.449l80.309-80.309-29.916-29.916c-84.165 75.432-195.253 121.423-316.905 121.423s-232.758-45.992-316.923-121.423l-29.916 29.916 80.309 80.309c3.31 3.31 5.159 7.765 5.159 12.449s-1.849 9.156-5.159 12.449c-27.010 26.993-62.913 41.871-101.104 41.871-38.209 0-74.111-14.879-101.122-41.871-55.764-55.746-55.764-146.479 0-202.226 3.31-3.31 7.783-5.159 12.449-5.159s9.156 1.849 12.449 5.159l72.122 72.122 29.511-29.511c-82.387-85.521-133.203-201.662-133.203-329.495 0-174.282 94.325-326.871 234.554-409.646l-53.316-53.316c-6.885-6.885-6.885-18.013 0-24.897 3.434-3.434 7.941-5.159 12.449-5.159s9.015 1.726 12.449 5.159l60.747 60.747c63.001-30.884 133.767-48.298 208.529-48.298s145.529 17.414 208.529 48.298l60.747-60.747c3.434-3.434 7.941-5.159 12.449-5.159s9.015 1.726 12.449 5.159c6.885 6.885 6.885 18.013 0 24.897l-53.316 53.316c140.229 82.774 234.554 235.364 234.554 409.646 0 127.833-50.816 243.974-133.203 329.495l29.511 29.511zM862.061 632.248c0.194-0.282 0.493-0.458 0.669-0.757s0.176-0.651 0.317-0.968c34.23-59.409 53.933-128.185 53.933-201.521s-19.703-142.13-53.933-201.521c-0.158-0.317-0.141-0.651-0.317-0.968-0.247-0.44-0.616-0.757-0.898-1.162-35.392-60.536-85.997-111.088-146.585-146.409-0.282-0.194-0.458-0.493-0.757-0.669-0.458-0.264-0.951-0.37-1.409-0.581-59.303-34.071-127.921-53.669-201.081-53.669s-141.778 19.597-201.081 53.669c-0.458 0.211-0.951 0.317-1.409 0.581-0.299 0.176-0.458 0.475-0.757 0.669-60.588 35.321-111.193 85.856-146.585 146.409-0.282 0.405-0.651 0.722-0.898 1.162-0.176 0.299-0.176 0.651-0.317 0.968-34.23 59.409-53.933 128.185-53.933 201.521s19.703 142.13 53.933 201.521c0.158 0.317 0.141 0.651 0.317 0.968 0.176 0.299 0.475 0.458 0.669 0.757 35.392 60.729 86.102 111.422 146.814 146.814 0.282 0.194 0.458 0.493 0.757 0.669 0.317 0.176 0.651 0.176 0.968 0.335 59.391 34.23 128.185 53.933 201.521 53.933s142.13-19.686 201.521-53.933c0.317-0.158 0.651-0.158 0.968-0.335 0.299-0.176 0.458-0.475 0.757-0.669 60.729-35.374 111.422-86.085 146.814-146.814z" />
<glyph unicode="&#xe922;" glyph-name="close" d="M659.288 431.635c-9.352 9.352-9.352 23.379 0 32.731l350.685 350.685c9.352 9.352 14.027 23.379 14.027 32.731s-4.676 23.379-14.027 32.731l-65.461 65.461c-9.352 9.352-23.379 14.027-32.731 14.027-14.027 0-23.379-4.676-32.731-14.027l-350.685-350.685c-9.352-9.352-23.379-9.352-32.731 0l-350.685 350.685c-9.352 9.352-23.379 14.027-32.731 14.027s-23.379-4.676-32.731-14.027l-65.461-65.461c-9.352-9.352-14.027-23.379-14.027-32.731s4.676-23.379 14.027-32.731l350.685-350.685c9.352-9.352 9.352-23.379 0-32.731l-350.685-350.685c-9.352-9.352-14.027-23.379-14.027-32.731s4.676-23.379 14.027-32.731l65.461-65.461c9.352-9.352 23.379-14.027 32.731-14.027s23.379 4.676 32.731 14.027l350.685 350.685c9.352 9.352 23.379 9.352 32.731 0l350.685-350.685c9.352-9.352 23.379-14.027 32.731-14.027s23.379 4.676 32.731 14.027l65.461 65.461c9.352 9.352 14.027 23.379 14.027 32.731s-4.676 23.379-14.027 32.731l-350.685 350.685z" />
<glyph unicode="&#xe923;" glyph-name="commerce" d="M429.371 154.342c-49.658 0-90.058-40.4-90.058-90.058s40.4-90.058 90.058-90.058 90.058 40.4 90.058 90.058c-0.002 49.658-40.402 90.058-90.058 90.058zM429.371 24.514c-21.932 0-39.774 17.844-39.774 39.774 0 21.932 17.844 39.774 39.774 39.774s39.774-17.844 39.774-39.774c0-21.934-17.844-39.774-39.774-39.774zM745.261 154.342c-49.658 0-90.058-40.4-90.058-90.058s40.4-90.058 90.058-90.058 90.058 40.4 90.058 90.058c-0.002 49.658-40.402 90.058-90.058 90.058zM745.261 24.514c-21.932 0-39.774 17.844-39.774 39.774 0 21.932 17.844 39.774 39.774 39.774 21.932 0 39.774-17.844 39.774-39.774 0-21.934-17.844-39.774-39.774-39.774zM767.433 628.489h-360.299c-13.886 0-25.142-11.256-25.142-25.142s11.258-25.142 25.142-25.142h360.299c13.886 0 25.142 11.256 25.142 25.142 0 13.888-11.256 25.142-25.142 25.142zM747.823 497.929h-321.077c-13.886 0-25.142-11.256-25.142-25.142s11.256-25.142 25.142-25.142h321.075c13.886 0 25.142 11.256 25.142 25.142 0 13.884-11.256 25.142-25.14 25.142zM1012.684 740.512c-9.588 11.768-23.796 18.516-38.978 18.516h-783.15l-15.816 76.778c-3.302 16.016-14.226 29.464-29.228 35.978l-110.354 47.9c-12.74 5.534-27.546-0.312-33.072-13.048-5.532-12.74 0.314-27.548 13.048-33.074l110.356-47.902 121.652-590.523c4.792-23.256 25.504-40.136 49.25-40.136h602.333c13.886 0 25.142 11.256 25.142 25.142s-11.256 25.142-25.142 25.142h-602.331l-14.798 71.832h621.785c23.744 0 44.458 16.88 49.248 40.136l70.326 341.351c3.062 14.864-0.682 30.142-10.272 41.908zM903.382 367.397h-632.143l-70.322 341.349 772.788-0.002-70.322-341.347z" />
<glyph unicode="&#xe924;" d="M614.944 504.072c-61.456 0-89.028-34.444-99.878-54.678-1.362-2.54-5.060-2.538-6.42 0.006-10.812 20.234-38.232 54.672-99.686 54.672-70.004 0-131.584-47.786-131.584-135.048 0-35.31 7.196-65.56 27.168-99.322 40.698-68.798 174.778-157.986 202.322-175.558 3.046-1.944 6.902-1.946 9.95-0.012 27.564 17.49 161.668 106.236 202.688 175.574 19.972 33.76 27.118 64.012 27.118 99.322 0.004 87.254-61.678 135.044-131.678 135.044z" />
<glyph unicode="&#xe925;" d="M511.856 63.14v0c-7.41 0-14.626 2.11-20.882 6.1-16.792 10.716-165.446 106.974-211.852 185.42-21.634 36.572-31.284 71.844-31.284 114.362 0 49.418 16.866 91.502 48.776 121.704 29.218 27.656 69.12 42.888 112.348 42.888 50.532 0 83.032-19.818 102.92-39.698 19.922 19.876 52.472 39.698 103.062 39.698 43.234 0 83.15-15.226 112.388-42.88 31.948-30.212 48.836-72.298 48.836-121.712 0-42.578-9.634-77.846-31.234-114.362-46.738-79.004-195.476-174.812-212.284-185.476-6.238-3.956-13.426-6.044-20.794-6.044zM408.962 474.528c-50.788 0-102.036-32.622-102.036-105.506 0-32.184 6.68-56.602 23.050-84.278 30.014-50.728 126.478-122.126 181.91-158.64 55.442 36.336 151.966 107.538 182.196 158.642 16.334 27.618 23 52.034 23 84.278 0 72.88-51.3 105.506-102.138 105.506-43.704 0-64.278-21.26-73.838-39.094-5.796-10.792-17-17.486-29.244-17.486-12.276 0-23.49 6.716-29.268 17.528-9.522 17.81-30.028 39.050-73.632 39.050z" />
<glyph unicode="&#xe926;" d="M651.424-64h-430.346c-56.968 0-103.32 46.348-103.32 103.32v470.11c0 34.856 17.486 66.948 46.774 85.844l265.996 171.612c49.492 31.934 113.452 31.934 162.944 0l265.994-171.612c29.29-18.896 46.776-50.986 46.776-85.844v-512.788c0-16.316-13.23-29.544-29.544-29.544s-29.544 13.226-29.544 29.544v512.788c0 14.694-7.372 28.226-19.724 36.194l-265.988 171.612c-30.036 19.378-68.848 19.38-98.884 0l-265.992-171.612c-12.35-7.968-19.72-21.498-19.72-36.194v-470.112c0-24.392 19.842-44.232 44.232-44.232h430.346c16.314 0 29.544-13.226 29.544-29.544s-13.23-29.542-29.544-29.542z" />
<glyph unicode="&#xe927;" d="M973.838 614.032c-5.688 0-11.43 1.636-16.5 5.058l-394.328 266.088c-30.986 20.91-71.032 20.91-102.016 0l-394.328-266.088c-13.52-9.126-31.886-5.564-41.016 7.962s-5.564 31.89 7.962 41.016l394.328 266.090c51.066 34.456 117.054 34.456 168.12 0l394.328-266.088c13.524-9.126 17.090-27.49 7.962-41.016-5.706-8.458-15.024-13.022-24.512-13.022z" />
<glyph unicode="&#xe928;" glyph-name="construction-1" d="M1013.11 543.872l-485.392 355.394c-9.36 6.852-22.076 6.852-31.432 0l-485.396-355.394c-11.856-8.682-14.432-25.33-5.75-37.186s25.332-14.428 37.186-5.75l469.674 343.888 469.674-343.886c4.736-3.47 10.24-5.14 15.696-5.14 8.192 0 16.276 3.77 21.488 10.89 8.684 11.854 6.108 28.502-5.748 37.184zM884.492 494.914c-14.692 0-26.606-11.912-26.606-26.606v-423.498h-212.844v231.172c0 73.36-59.684 133.040-133.040 133.040s-133.040-59.684-133.040-133.040v-231.174h-212.846v423.498c0 14.694-11.914 26.606-26.606 26.606s-26.606-11.912-26.606-26.606v-450.106c0-14.694 11.914-26.606 26.606-26.606h266.058c13.992 0 25.442 10.81 26.502 24.534 0.064 0.622 0.104 1.302 0.104 2.072v257.78c0 44.018 35.81 79.828 79.828 79.828s79.828-35.812 79.828-79.828v-257.78c0-0.766 0.040-1.434 0.104-2.048 1.048-13.734 12.502-24.558 26.502-24.558h266.058c14.694 0 26.606 11.912 26.606 26.606v450.106c-0.002 14.696-11.914 26.608-26.608 26.608z" />
<glyph unicode="&#xe929;" d="M1013.112 543.868c11.866-8.674 14.42-25.33 5.748-37.17-5.214-7.13-13.304-10.908-21.472-10.908-5.454 0-10.962 1.676-15.698 5.162l-70.588 51.67v-534.422c0-14.686-11.92-26.606-26.606-26.606h-266.070c-13.996 0-25.436 10.828-26.5 24.558-0.054 0.612-0.106 1.278-0.106 2.048v257.79c0 44.008-35.812 79.82-79.82 79.82s-79.82-35.812-79.82-79.82v-257.792c0-0.772-0.054-1.436-0.106-2.076-1.064-13.73-12.506-24.532-26.5-24.532h-266.068c-14.686 0-26.606 11.92-26.606 26.606v534.426l-70.588-51.67c-11.84-8.7-28.496-6.12-37.17 5.748-8.674 11.84-6.12 28.496 5.748 37.17l485.386 355.41c9.366 6.838 22.084 6.838 31.45 0l485.386-355.412zM857.888 44.804l0.24 546.608-346.128 253.404-346.128-253.402 0.24-546.608h212.854v231.184c0 73.354 59.678 133.034 133.034 133.034s133.034-59.678 133.034-133.034v-231.186h212.854z" />
<glyph unicode="&#xe92a;" d="M858.126 591.414l-0.24-546.608h-212.852v231.184c0 73.354-59.678 133.034-133.034 133.034s-133.034-59.678-133.034-133.034v-231.186h-212.854l-0.24 546.608 346.128 253.404 346.126-253.402z" />
<glyph unicode="&#xe92b;" glyph-name="danger" d="M862.36 170.124c-4.36 13.064-16.578 21.876-30.36 21.876h-64v288c0 141.156-114.844 256-256 256s-256-114.844-256-256v-288h-64c-13.782 0-26-8.812-30.36-21.876l-64-192c-3.25-9.75-1.61-20.5 4.406-28.844 6.016-8.342 15.672-13.28 25.954-13.28h768c10.282 0 19.938 4.938 25.954 13.282s7.656 19.094 4.406 28.844l-64 191.998zM320 480c0 105.876 86.126 192 192 192s192-86.126 192-192v-288h-384v288zM172.39 0l42.672 128h593.876l42.672-128h-679.22zM512 800c17.672 0 32 14.328 32 32v96c0 17.672-14.328 32-32 32s-32-14.328-32-32v-96c0-17.672 14.328-32 32-32zM960 512h-96c-17.672 0-32-14.328-32-32s14.328-32 32-32h96c17.672 0 32 14.328 32 32s-14.328 32-32 32zM192 480c0 17.672-14.328 32-32 32h-96c-17.672 0-32-14.328-32-32s14.328-32 32-32h96c17.672 0 32 14.328 32 32zM760.906 696.906c8.188 0 16.376 3.126 22.626 9.376l67.876 67.876c12.5 12.5 12.5 32.75 0 45.25s-32.75 12.5-45.25 0l-67.876-67.876c-12.5-12.5-12.5-32.75 0-45.25 6.25-6.25 14.436-9.376 22.624-9.376zM240.468 706.282c6.25-6.25 14.438-9.376 22.626-9.376s16.376 3.126 22.626 9.376c12.5 12.5 12.5 32.75 0 45.25l-67.876 67.876c-12.5 12.5-32.75 12.5-45.25 0s-12.5-32.75 0-45.25l67.874-67.876zM384 480v-256h128v384c-70.694 0-128-57.306-128-128z" />
<glyph unicode="&#xe92c;" glyph-name="donation" d="M859.927 627.284c90.471 0 164.073 73.604 164.073 164.075s-73.604 164.068-164.073 164.068h-695.855c-90.469 0-164.073-73.599-164.073-164.073 0-90.471 73.604-164.075 164.073-164.075h278.803v-282.979l-19.774 27.568c-0.047 0.065-0.094 0.131-0.143 0.196-22.273 30.294-46.333 38.121-62.595 39.353-20.103 1.538-39.52-5.952-54.623-21.051-20.694-20.696-38.641-56.475-6.933-109.509l121.936-234.7c0.641-1.232 1.391-2.372 2.234-3.415l14.77-21.447c34.81-50.547 92.235-80.725 153.608-80.725h129.057c60.528 0 108.509 18.709 142.611 55.608 58.333 63.119 54.058 156.868 53.352 167.671v211.209c0 41.072-33.415 74.487-74.487 74.487-14.736 0-28.486-4.3-40.060-11.713-11.592 26.102-37.764 44.35-68.116 44.35-23.044 0-43.679-10.517-57.352-27.007-13.318 12.449-31.197 20.080-50.823 20.080-12.119 0-23.566-2.907-33.69-8.063v160.089h268.080zM591.85 385.652v15.117c-0.002 18.575 15.111 33.688 33.688 33.688s33.69-15.113 33.69-33.69v-39.014c0-11.264 9.132-20.398 20.398-20.398s20.398 9.134 20.398 20.398v45.941c0 18.575 15.113 33.69 33.69 33.69s33.69-15.113 33.69-33.69v-74.318c0-11.264 9.132-20.398 20.398-20.398s20.398 9.134 20.398 20.398v41.68c0 18.575 15.113 33.69 33.69 33.69s33.69-15.113 33.69-33.69v-211.923c0-0.536 0.020-1.071 0.063-1.605 0.065-0.842 6.097-84.988-42.582-137.661-26.063-28.201-63.963-42.5-112.65-42.5h-129.057c-47.948 0-92.813 23.576-120.010 63.068l-15.201 22.071-121.426 233.715c-0.2 0.383-0.412 0.761-0.634 1.132-19.727 32.703-11.417 48.24 0.504 60.161 3.798 3.798 11.796 10.044 22.691 9.222 11.074-0.838 22.395-8.708 32.748-22.754l56.283-78.467c4.127-5.754 10.934-8.957 18.008-8.459 7.062 0.498 13.363 4.622 16.645 10.897l0.386 0.738c1.526 2.917 2.323 6.16 2.323 9.453v376.457c0 18.575 15.113 33.69 33.69 33.69s33.69-15.113 33.69-33.69v-272.947c0-11.264 9.132-20.398 20.398-20.398s20.398 9.134 20.398 20.396zM591.248 668.076c-4.671 36.611-36.026 65.006-73.885 65.006s-69.214-28.395-73.885-65.006h-279.405c-67.976 0.004-123.276 55.302-123.276 123.278 0 67.974 55.3 123.276 123.276 123.276h695.855c67.976 0 123.276-55.3 123.276-123.276s-55.3-123.278-123.276-123.278h-268.68zM571.449 343.415c-11.266 0-20.398-9.134-20.398-20.398v-11.86c0-11.264 9.132-20.398 20.398-20.398s20.398 9.134 20.398 20.398v11.86c0 11.262-9.132 20.398-20.398 20.398zM877.131 792.239c0 11.264-9.132 20.398-20.398 20.398h-59.155c-11.266 0-20.398-9.134-20.398-20.398s9.134-20.398 20.398-20.398h59.155c11.266 0 20.398 9.136 20.398 20.398zM693.546 812.638h-520.159c-11.266 0-20.398-9.134-20.398-20.398s9.132-20.398 20.398-20.398h520.159c11.264 0 20.398 9.132 20.398 20.398s-9.132 20.398-20.398 20.398z" />
<glyph unicode="&#xe92d;" glyph-name="education" d="M997.612 507.257h-496.093c-63.053 0-114.348-51.298-114.348-114.348 0-49.321 31.391-91.45 75.241-107.459l-68.067-42.896-219.066 138.055c-53.339 33.604-124.087 17.567-157.701-35.775-33.618-53.342-17.567-124.090 35.771-157.705l280.029-176.476c37.246-23.471 84.663-23.489 121.933 0l425.103 267.908h117.198c14.577 0 26.388 11.815 26.388 26.388v175.92c0 14.573-11.811 26.388-26.388 26.388zM971.224 331.337h-98.431c-4.979 0-9.859-1.407-14.070-4.064l-431.552-271.972c-20.048-12.638-45.588-12.649-65.653 0l-280.029 176.476c-28.724 18.102-37.365 56.196-19.267 84.916 18.106 28.721 56.199 37.358 84.92 19.263l233.132-146.921c8.595-5.418 19.545-5.418 28.14 0l142.052 89.522h47.815c14.577 0 26.388 11.815 26.388 26.388s-11.811 26.388-26.388 26.388c-54.535 0-42.801 0-96.763 0-33.949 0-61.572 27.623-61.572 61.572s27.623 61.572 61.572 61.572h469.705v-123.14zM89.874 850.18h98.515v-138.533c0-14.573 11.811-26.388 26.388-26.388h267.398c14.577 0 26.388 11.815 26.388 26.388v138.533h33.425v-142.569c-26.047-11.139-44.349-37.010-44.349-67.082 0-40.212 32.714-72.929 72.926-72.929s72.926 32.714 72.926 72.929c0 31.718-20.393 58.697-48.726 68.711v140.94h12.314c14.577 0 26.388 11.815 26.388 26.388s-11.811 26.388-26.388 26.388c-63.655 0-453.19 0-517.204 0-14.577 0-26.388-11.815-26.388-26.388s11.811-26.388 26.388-26.388zM570.56 660.68c11.111 0 20.15-9.039 20.15-20.15 0.004-11.111-9.039-20.153-20.15-20.153-11.108 0-20.15 9.039-20.15 20.153 0 11.111 9.039 20.15 20.15 20.15zM241.165 850.18h214.622v-112.145h-214.622v112.145z" />
<glyph unicode="&#xe92e;" d="M997.612 480.869c-18.165 0-469.895 0-496.093 0-48.582 0-87.96-39.381-87.96-87.96s39.378-87.96 87.96-87.96h41.324l-148.497-93.586-233.132 146.921c-41.095 25.892-95.408 13.581-121.311-27.517-25.899-41.098-13.577-95.412 27.517-121.314l280.029-176.476c28.654-18.060 65.136-18.060 93.793 0l431.552 271.972h124.818v175.92z" />
<glyph unicode="&#xe92f;" d="M214.777 876.568h267.398v-164.921h-267.398v164.921z" />
<glyph unicode="&#xe930;" d="M997.612 507.257h-496.093c-63.053 0-114.348-51.298-114.348-114.348 0-49.321 31.391-91.45 75.241-107.459l-68.067-42.896-219.066 138.055c-53.339 33.604-124.087 17.567-157.701-35.775-33.618-53.342-17.567-124.090 35.771-157.705l280.029-176.476c37.246-23.471 84.663-23.489 121.933 0l425.103 267.908h117.198c14.577 0 26.388 11.815 26.388 26.388v175.92c0 14.573-11.811 26.388-26.388 26.388zM971.224 331.337h-98.431c-4.979 0-9.859-1.407-14.070-4.064l-431.552-271.972c-20.048-12.638-45.588-12.649-65.653 0l-280.029 176.476c-28.724 18.102-37.365 56.196-19.267 84.916 18.106 28.721 56.199 37.358 84.92 19.263l233.132-146.921c8.595-5.418 19.545-5.418 28.14 0l142.052 89.522h47.815c14.577 0 26.388 11.815 26.388 26.388s-11.811 26.388-26.388 26.388c-54.535 0-42.801 0-96.763 0-33.949 0-61.572 27.623-61.572 61.572s27.623 61.572 61.572 61.572h469.705v-123.14z" />
<glyph unicode="&#xe931;" d="M89.874 850.18h98.515v-138.533c0-14.573 11.811-26.388 26.388-26.388h267.398c14.577 0 26.388 11.815 26.388 26.388v138.533h33.425v-142.569c-26.047-11.139-44.349-37.010-44.349-67.082 0-40.212 32.714-72.929 72.926-72.929s72.926 32.714 72.926 72.929c0 31.718-20.393 58.697-48.726 68.711v140.94h12.314c14.577 0 26.388 11.815 26.388 26.388s-11.811 26.388-26.388 26.388c-63.655 0-453.19 0-517.204 0-14.577 0-26.388-11.815-26.388-26.388s11.811-26.388 26.388-26.388zM570.56 620.377c-11.108 0-20.15 9.039-20.15 20.153 0 11.111 9.039 20.15 20.15 20.15s20.15-9.039 20.15-20.15c0.004-11.111-9.039-20.153-20.15-20.153zM455.787 850.18v-112.145h-214.622v112.145h214.622z" />
<glyph unicode="&#xe932;" glyph-name="favorite" d="M194.35 707.519h478.389l124.073-137.956 51.479 46.319c20.307 18.271 21.992 49.548 3.721 69.838l-126.39 140.501h-86.618v92.339h-106.346v-92.339h-390.384l-129.198-140.396c-18.499-20.097-17.201-51.391 2.878-69.908l50.97-46.863 127.425 138.465zM645.2 490.194c40.579 0 79.702-13.392 111.664-37.561 2.141 1.615 4.388 3.089 6.582 4.581v101.519l-97.236 108.82h-458.731l-106.784-122.019v-415.448c0-27.328 22.15-49.443 49.461-49.443h415.834c-94.112 98.798-103.239 184.661-104.046 196.754-1.457 9.601-2.176 18.605-2.176 27.381 0 102.203 83.195 185.416 185.433 185.416zM875.144 447.526c-44.529 0-84.388-19.64-111.681-50.637-27.258 30.961-67.118 50.637-111.629 50.637-82.23 0-148.891-66.661-148.891-148.873 0-8.407 0.86-16.586 2.194-24.625h-0.123c0 0 6.564-158.983 258.466-296.553 247.935 125.617 258.501 296.553 258.501 296.553h-0.14c1.316 8.039 2.176 16.235 2.176 24.625-0.035 82.212-66.661 148.873-148.873 148.873zM647.183 379.917c-48.425 0-87.776-39.386-87.776-87.776 0-2.545-2.054-4.563-4.581-4.563s-4.563 2.018-4.563 4.563c0 53.427 43.476 96.903 96.903 96.903 2.527 0 4.581-2.036 4.581-4.563s-2.054-4.563-4.563-4.563z" />
<glyph unicode="&#xe933;" glyph-name="gestures" d="M879.764 596.557l-77.123 56.876 2.851 3.87c12.831 17.411 9.129 41.925-8.277 54.761l-77.108 56.871 6.22 8.445c12.836 17.411 9.123 41.93-8.288 54.767l-108.651 80.105c-8.361 6.168-18.811 8.768-29.099 7.202-10.272-1.551-19.5-7.123-25.668-15.484l-6.23-8.455-77.113 56.845c-17.401 12.831-41.925 9.129-54.767-8.283l-93.245-126.454-26.968 14.424c-9.698 5.186-21.135 6.058-31.501 2.397-10.372-3.661-18.727-11.51-23.025-21.631l-110.348-259.978c-5.217-12.293-3.812-26.388 3.718-37.413l202.23-295.798-32.102-238.708c-2.883-21.438 12.163-41.152 33.6-44.040 1.77-0.235 3.53-0.355 5.269-0.355 19.312 0 36.123 14.283 38.771 33.95l34.102 253.617c1.29 9.599-1.018 19.333-6.486 27.323l-198.621 290.534 85.239 200.814 219.714-117.508-27.746-37.637-77.134 56.866c-17.411 12.836-41.93 9.134-54.767-8.283-12.836-17.411-9.129-41.93 8.283-54.767l108.661-80.111c0-0.005 0.005-0.005 0.010-0.005l108.609-80.095c0.005-0.005 0.010-0.005 0.016-0.010l108.661-80.090c6.998-5.16 15.134-7.64 23.208-7.64 6.476 0 12.889 1.655 18.644 4.768l-5.295-43.826-75.149-81.526c-7.16-7.771-10.883-18.106-10.314-28.66l11.411-211.186c1.128-20.884 18.409-37.058 39.073-37.052 0.715 0 1.426 0.016 2.146 0.057 21.605 1.17 38.17 19.626 37 41.225l-10.518 194.683 72.512 78.664c5.567 6.042 9.097 13.688 10.090 21.845l22.508 186.202 61.274 83.119c12.836 17.406 9.134 41.925-8.277 54.761zM456.317 866.066l45.586-33.606-58.354-79.165-50.479 26.994 63.248 85.777zM513.35 715.966l81.087 109.993 45.596-33.621-76.204-103.371-50.479 26.999zM610.109 619.723c0 0 0.005 0 0 0l63.519 86.158 45.581-33.616-2.679-3.635c-0.063-0.078-0.131-0.151-0.188-0.23l-118.594-160.884-45.586 33.611 57.947 78.596zM706.404 427.416l-45.601 33.611 95.355 129.352 45.596-33.621-95.349-129.341z" />
<glyph unicode="&#xe934;" glyph-name="gestures-1" d="M859.466 525.405h-100.164c-12.384 0-23.838-6.135-30.728-16.162v323.365c0 20.592-16.694 37.286-37.286 37.286h-94.397v52.821c0 20.592-16.694 37.286-37.286 37.286h-131.693c-20.592 0-37.286-16.694-37.286-37.286v-52.821h-94.412c-20.592 0-37.286-16.694-37.286-37.286v-84.897h-94.402c-20.592 0-37.286-16.694-37.286-37.286v-494.302c0-4.395 0.776-8.76 2.297-12.886l89.416-242.833c5.399-14.661 19.369-24.4 34.989-24.4h391.598c14.164 0 27.099 8.024 33.398 20.711l213.92 430.966c2.56 5.15 3.888 10.828 3.888 16.575v83.868c0.005 20.592-16.689 37.281-37.281 37.281zM822.181 413.001l-199.756-402.425h-342.48l-78.136 212.194v450.365h57.121v-278.259c0-20.592 16.694-37.286 37.286-37.286s37.286 16.694 37.286 37.286v400.447h57.126v-313.924c0-20.592 16.694-37.286 37.286-37.286s37.286 16.694 37.286 37.286l0.005 404.031h57.121v-404.031c0-20.592 16.694-37.286 37.286-37.286s37.286 16.694 37.286 37.286v313.924h57.107v-313.924c0-0.030 0.005-0.065 0.005-0.099v-130.181c0-17.31 11.916-32.344 28.77-36.301 16.858-3.947 34.213 4.216 41.914 19.722l57.733 116.296h39.761v-37.832z" />
<glyph unicode="&#xe935;" glyph-name="hand" d="M162.585 310.515c0-9.864 3.824-51.217 31.761-100.297 23.652-41.553 68.542-90.15 151.162-100.89v-138.75c0-19.094 15.481-34.578 34.578-34.578 19.094 0 34.575 15.484 34.575 34.578v171.163c0 19.094-15.481 34.578-34.575 34.578-56.844 0-98.756 22.29-124.563 66.253-19.035 32.416-23.866 59.802-23.866 71.866 0 72.983 0 283.734 0 283.734 0 6.144 0 22.476 28.4 22.476 28.393 0 28.393-16.329 28.393-22.476v-119.115c0-9.433 3.851-18.46 10.671-24.983 6.816-6.52 15.994-10.016 25.424-9.561 0.083 0.038 20.211-0.076 45.663-14.45 39.074-22.073 70.604-66.367 91.177-128.090 6.041-18.118 25.624-27.917 43.739-21.873 18.118 6.041 27.91 25.624 21.869 43.739-44.739 134.23-123.397 173.666-169.384 185.151v319.864c0 7.482 0 20.008 28.396 20.008 28.393 0 28.393-12.526 28.393-20.008v-188.699c0-19.097 15.484-34.578 34.578-34.578s34.575 15.481 34.575 34.578v230.683c0 7.482 0 20.008 28.396 20.008 28.393 0 28.393-12.526 28.393-20.008v-230.683c0-19.097 15.484-34.578 34.578-34.578s34.578 15.481 34.578 34.578v188.699c0 7.482 0 20.008 28.393 20.008 28.396 0 28.396-12.526 28.396-20.008v-245.753c0-19.094 15.484-34.578 34.578-34.578 19.097 0 34.578 15.484 34.578 34.578v129.176c0 6.144 0 22.476 28.396 22.476s28.424-16.329 28.424-22.476v-401.332c0.038-0.61 2.472-62.361-34.199-101.162-20.983-22.207-52.183-33.464-92.725-33.464-19.097 0-34.578-15.484-34.578-34.578v-171.163c0-19.094 15.481-34.578 34.578-34.578 19.094 0 34.575 15.484 34.575 34.578v138.785c44.366 5.903 80.731 23.635 108.41 52.924 54.562 57.734 53.496 139.933 53.065 151.355v398.636c0 53.948-40.119 91.632-97.552 91.632-10.040 0-19.539-1.179-28.396-3.369v28.31c0 53.334-39.205 89.16-97.556 89.16-13.743 0-26.41-2.010-37.767-5.748-14.912 29.624-46.694 47.735-88.161 47.735-41.47 0-73.249-18.111-88.178-47.732-11.357 3.737-24.024 5.748-37.767 5.748-58.351 0-97.556-35.83-97.556-89.16v-142.419c-8.857 2.189-18.356 3.365-28.393 3.365-57.441 0-97.556-37.685-97.556-91.632-0.003 0.003 0.079-213.047 0.079-287.654z" />
<glyph unicode="&#xe936;" d="M105.68 305.090v-369.090h112.528l22.504 369.090z" />
<glyph unicode="&#xe937;" d="M218.214 305.092h54.014v-369.090h-54.014v369.090z" />
<glyph unicode="&#xe938;" d="M120.406 662.928c14.916 0 27.006-12.090 27.006-27.006l45.438-289.478h-121.956l22.506 149.944v139.534c-0.002 14.916 12.090 27.006 27.006 27.006z" />
<glyph unicode="&#xe939;" d="M255.438 608.916c0 14.916 12.090 27.006 27.006 27.006 14.914 0 27.006-12.090 27.006-27.006v-157.538l-122.17-86.504 68.158 244.042z" />
<glyph unicode="&#xe93a;" d="M201.424 635.922c0 14.916 12.092 27.006 27.006 27.006 14.916 0 27.006-12.090 27.006-27.006v-289.478h-99.45l45.438 289.478z" />
<glyph unicode="&#xe93b;" d="M174.418 689.934c14.916 0 27.006-12.092 27.006-27.006v-312.2h-54.012v312.2c0 14.914 12.092 27.006 27.006 27.006z" />
<glyph unicode="&#xe93c;" d="M93.398 451.374l-45.010-90.022 139.534-179.37c68.234 6.774 121.53 64.338 121.53 134.358 0 74.576 0 135.032 0 135.032l-216.054 0.002z" />
<glyph unicode="&#xe93d;" d="M174.418 181.31c4.558 0 9.060 0.234 13.504 0.676v84.842c0 52.206-42.316 94.53-94.522 94.53v135.032c0 14.916-12.092 27.006-27.006 27.006s-27.006-12.092-27.006-27.006v-180.046c-0.002-74.576 60.454-135.034 135.030-135.034z" />
<glyph unicode="&#xe93e;" d="M751.78 440.122v-504.122h112.528l22.504 504.122z" />
<glyph unicode="&#xe93f;" d="M864.3 440.124h54.014v-504.122h-54.014v504.122z" />
<glyph unicode="&#xe940;" d="M903.594 797.96c-14.916 0-27.006-12.090-27.006-27.006l-45.438-289.478h121.958l-22.506 149.944v139.534c0 14.916-12.090 27.006-27.008 27.006z" />
<glyph unicode="&#xe941;" d="M768.562 743.948c0 14.914-12.090 27.006-27.006 27.006-14.914 0-27.006-12.092-27.006-27.006v-157.54l122.17-86.502-68.158 244.042z" />
<glyph unicode="&#xe942;" d="M822.576 770.954c0 14.916-12.092 27.006-27.006 27.006-14.916 0-27.006-12.090-27.006-27.006v-289.478h99.452l-45.44 289.478z" />
<glyph unicode="&#xe943;" d="M849.582 824.968c-14.916 0-27.006-12.092-27.006-27.006v-312.2h54.014v312.198c-0.002 14.916-12.092 27.008-27.008 27.008z" />
<glyph unicode="&#xe944;" d="M930.602 586.408l45.010-90.022-139.534-179.37c-68.234 6.774-121.53 64.338-121.53 134.358 0 74.576 0 135.032 0 135.032l216.052 0.002z" />
<glyph unicode="&#xe945;" d="M849.582 316.342c-4.558 0-9.060 0.234-13.504 0.676v84.842c0 52.206 42.318 94.53 94.522 94.53v135.030c0 14.916 12.092 27.006 27.006 27.006s27.006-12.092 27.006-27.006v-180.044c0.002-74.576-60.452-135.034-135.030-135.034z" />
<glyph unicode="&#xe946;" d="M428.73 575.154v-639.154h112.528l22.504 639.154z" />
<glyph unicode="&#xe947;" d="M541.258 575.156h54.014v-639.154h-54.014v639.154z" />
<glyph unicode="&#xe948;" d="M457.986 932.994c14.916 0 27.006-12.090 27.006-27.006l45.438-289.478h-121.958l22.506 149.944v139.532c0.002 14.918 12.094 27.008 27.008 27.008z" />
<glyph unicode="&#xe949;" d="M593.020 878.98c0 14.916 12.090 27.006 27.006 27.006 14.914 0 27.006-12.090 27.006-27.006v-157.54l-122.17-86.502 68.158 244.042z" />
<glyph unicode="&#xe94a;" d="M539.006 905.986c0 14.916 12.092 27.006 27.006 27.006 14.916 0 27.006-12.090 27.006-27.006v-289.478h-99.452l45.44 289.478z" />
<glyph unicode="&#xe94b;" d="M512 960c14.916 0 27.006-12.092 27.006-27.006v-312.2h-54.014v312.2c0.002 14.914 12.094 27.006 27.008 27.006z" />
<glyph unicode="&#xe94c;" d="M430.98 721.44l-45.010-90.022 139.534-179.37c68.234 6.774 121.53 64.338 121.53 134.358 0 74.576 0 135.032 0 135.032l-216.054 0.002z" />
<glyph unicode="&#xe94d;" d="M512 451.374c4.558 0 9.060 0.234 13.504 0.676v84.842c0 52.206-42.316 94.53-94.522 94.53v135.032c0 14.916-12.092 27.006-27.006 27.006s-27.006-12.092-27.006-27.006v-180.044c-0.002-74.576 60.454-135.036 135.030-135.036z" />
<glyph unicode="&#xe94e;" glyph-name="hands-1" d="M512 696.553c9.026 0 16.34 7.316 16.34 16.34v230.766c0 9.024-7.314 16.34-16.34 16.34s-16.34-7.316-16.34-16.34v-230.766c0-9.026 7.314-16.34 16.34-16.34zM577.449 696.553c9.026 0 16.34 7.316 16.34 16.34v230.766c0 9.024-7.314 16.34-16.34 16.34s-16.34-7.316-16.34-16.34v-230.766c0-9.026 7.314-16.34 16.34-16.34zM462.892 659.663v236.527c0 9.024-7.314 16.34-16.34 16.34s-16.34-7.316-16.34-16.34v-251.649c0-9.024 7.314-16.34 16.34-16.34 42.302 0 76.719-34.419 76.719-76.726 0-9.024 7.314-16.34 16.34-16.34s16.34 7.316 16.34 16.34c0 54.775-40.459 100.278-93.060 108.189zM642.898 888.795c-9.026 0-16.34-7.316-16.34-16.34v-273.757c0-40.77-21.951-78.798-57.285-99.239-7.811-4.519-10.482-14.517-5.961-22.328 3.031-5.235 8.517-8.161 14.16-8.161 2.776 0 5.591 0.71 8.168 2.198 1.309 0.758 2.601 1.538 3.88 2.333v-521.162c0-9.024 7.314-16.34 16.34-16.34s16.34 7.316 16.34 16.34v548.796c23.463 26.583 37.038 61.218 37.038 97.561v273.757c0 9.024-7.314 16.34-16.34 16.34zM454.728 499.459c-35.335 20.441-57.285 58.466-57.285 99.239v178.228c0 9.024-7.314 16.34-16.34 16.34s-16.34-7.316-16.34-16.34v-178.228c0-49.185 24.848-95.256 65.442-122.444v-523.913c0-9.024 7.314-16.34 16.34-16.34s16.34 7.316 16.34 16.34v532.972c0 5.835-3.109 11.225-8.157 14.146zM184.754 429.585c9.026 0 16.34 7.316 16.34 16.34v230.766c0 9.024-7.314 16.34-16.34 16.34s-16.34-7.316-16.34-16.34v-230.766c0-9.024 7.314-16.34 16.34-16.34zM250.202 429.585c9.026 0 16.34 7.316 16.34 16.34v230.766c0 9.024-7.314 16.34-16.34 16.34s-16.34-7.316-16.34-16.34v-230.766c0-9.024 7.314-16.34 16.34-16.34zM135.645 392.697v236.524c0 9.024-7.314 16.34-16.34 16.34s-16.34-7.316-16.34-16.34v-251.647c0-9.024 7.314-16.34 16.34-16.34 42.302 0 76.719-34.419 76.719-76.726 0-9.024 7.314-16.34 16.34-16.34s16.34 7.316 16.34 16.34c0 54.773-40.461 100.276-93.060 108.189zM315.651 621.827c-9.026 0-16.34-7.316-16.34-16.34v-273.757c0-40.77-21.951-78.798-57.285-99.239-7.811-4.519-10.482-14.515-5.961-22.328 3.031-5.235 8.517-8.161 14.16-8.161 2.776 0 5.591 0.71 8.168 2.201 1.309 0.758 2.601 1.538 3.88 2.333v-254.196c0-9.024 7.314-16.34 16.34-16.34s16.34 7.316 16.34 16.34v281.831c23.463 26.58 37.038 61.218 37.038 97.559v273.757c0 9.024-7.316 16.34-16.34 16.34zM127.481 232.489c-35.335 20.443-57.285 58.468-57.285 99.239v178.228c0 9.024-7.314 16.34-16.34 16.34s-16.34-7.316-16.34-16.34v-178.228c0-49.183 24.848-95.254 65.442-122.442v-256.946c0-9.024 7.314-16.34 16.34-16.34s16.34 7.316 16.34 16.34v266.007c0 5.832-3.109 11.223-8.157 14.142zM839.246 560.309c9.026 0 16.34 7.316 16.34 16.34v230.766c0 9.024-7.314 16.34-16.34 16.34s-16.34-7.316-16.34-16.34v-230.766c0-9.024 7.316-16.34 16.34-16.34zM773.798 823.756c-9.026 0-16.34-7.316-16.34-16.34v-230.766c0-9.024 7.314-16.34 16.34-16.34s16.34 7.316 16.34 16.34v230.766c0 9.024-7.314 16.34-16.34 16.34zM921.036 508.298v251.647c0 9.024-7.314 16.34-16.34 16.34s-16.34-7.316-16.34-16.34v-236.527c-52.601-7.911-93.060-53.416-93.060-108.189 0-9.024 7.314-16.34 16.34-16.34s16.34 7.316 16.34 16.34c0 42.306 34.417 76.726 76.719 76.726 9.026 0.002 16.34 7.318 16.34 16.343zM781.974 363.213c-35.335 20.443-57.285 58.468-57.285 99.239v273.757c0 9.024-7.314 16.34-16.34 16.34s-16.34-7.316-16.34-16.34v-273.757c0-36.341 13.576-70.978 37.038-97.559v-412.552c0-9.024 7.314-16.34 16.34-16.34s16.34 7.316 16.34 16.34v384.919c1.281-0.795 2.571-1.575 3.88-2.333 2.577-1.492 5.392-2.201 8.168-2.201 5.643 0 11.129 2.926 14.16 8.161 4.521 7.811 1.85 17.807-5.961 22.325zM970.144 657.022c-9.026 0-16.34-7.316-16.34-16.34v-178.228c0-40.77-21.951-78.798-57.285-99.239-5.048-2.919-8.157-8.31-8.157-14.144v-396.73c0-9.024 7.314-16.34 16.34-16.34s16.34 7.316 16.34 16.34v387.671c40.594 27.188 65.442 73.26 65.442 122.442v178.228c0 9.024-7.314 16.34-16.34 16.34z" />
<glyph unicode="&#xe94f;" glyph-name="hands-2" d="M685.522 481.286c0.594-1.142 1.279-2.203 2.044-3.182l9.416-13.669c23.868-34.659 63.241-55.351 105.323-55.351h83.507c41.256 0 74.079 12.884 97.563 38.294 39.242 42.461 36.962 104.888 36.433 113.594v192.095c0 30.546-24.851 55.396-55.396 55.396-5.051 0-9.946-0.679-14.599-1.952v62.449c0 30.546-24.851 55.396-55.396 55.396-6.097 0-11.968-0.989-17.457-2.819-7.366 21.955-28.135 37.816-52.538 37.816-30.546 0-55.396-24.851-55.396-55.396v-3.356c-4.653 1.273-9.548 1.952-14.599 1.952-30.544 0-55.396-24.851-55.396-55.396v-147.26c-16.002 21.677-33.647 27.315-45.645 28.225-14.921 1.13-29.861-4.594-40.978-15.711-15.178-15.178-28.431-41.264-5.687-79.454l78.801-151.674zM641.254 683.566c1.936 1.934 5.089 4.165 9.047 3.878 4.93-0.373 10.581-4.555 15.911-11.776l36.393-50.735c4.127-5.754 10.936-8.959 18.008-8.459 7.062 0.498 13.363 4.622 16.645 10.897l0.251 0.477c1.526 2.917 2.321 6.16 2.321 9.453v209.86c0 8.049 6.548 14.599 14.599 14.599s14.599-6.55 14.599-14.599v-162.589c0-11.264 9.132-20.398 20.398-20.398s20.398 9.134 20.398 20.398v219.388c0 8.049 6.55 14.599 14.599 14.599s14.599-6.55 14.599-14.599v-215.147c0-11.264 9.132-20.398 20.398-20.398s20.398 9.134 20.398 20.398v180.148c0 8.049 6.55 14.599 14.599 14.599s14.599-6.55 14.599-14.599v-198.51c0-11.264 9.132-20.398 20.398-20.398s20.398 9.134 20.398 20.398v82.617c0 8.049 6.55 14.599 14.599 14.599s14.599-6.55 14.599-14.599v-192.772c0-0.536 0.020-1.071 0.063-1.605 0.041-0.514 3.254-52.332-25.663-83.621-15.446-16.712-38.19-25.188-67.602-25.188h-83.507c-28.656 0-55.469 14.091-71.725 37.694l-9.579 13.908-78.364 150.833c-0.2 0.383-0.412 0.761-0.634 1.132-11.613 19.252-5.332 25.533-0.747 30.118zM59.375 709.005h3.358c-1.273-4.653-1.952-9.55-1.952-14.599 0-30.546 24.851-55.396 55.396-55.396h147.26c-21.673-16-27.315-33.645-28.223-45.643-1.132-14.925 4.594-29.863 15.711-40.98 9.31-9.31 22.722-17.893 40.513-17.893 11.217 0 24.176 3.415 38.942 12.206l151.672 78.803c1.144 0.596 2.209 1.285 3.188 2.052l13.663 9.408c34.657 23.868 55.349 63.241 55.349 105.323v83.505c0 41.256-12.884 74.079-38.294 97.563-42.465 39.244-104.896 36.968-113.592 36.435h-192.099c-30.546 0-55.396-24.851-55.396-55.396 0-5.051 0.679-9.946 1.952-14.599h-62.449c-30.546 0-55.396-24.851-55.396-55.394 0-6.095 0.991-11.968 2.817-17.459-21.953-7.368-37.814-28.137-37.814-52.538 0-30.546 24.851-55.398 55.396-55.398zM59.375 779.002h215.149c11.266 0 20.398 9.134 20.398 20.398s-9.132 20.398-20.398 20.398h-180.152c-8.049 0-14.599 6.55-14.599 14.599s6.55 14.597 14.599 14.597h198.51c11.266 0 20.398 9.134 20.398 20.398s-9.132 20.398-20.398 20.398h-82.617c-8.049 0-14.599 6.55-14.599 14.599s6.55 14.599 14.599 14.599h192.774c0.496 0 1.053 0.022 1.544 0.057 0.518 0.043 52.375 3.453 83.843-25.806 16.604-15.439 25.025-38.133 25.025-67.451v-83.507c0-28.658-14.089-55.467-37.692-71.721l-13.914-9.581-150.829-78.364c-0.383-0.2-0.761-0.412-1.132-0.636-19.254-11.613-25.533-5.334-30.12-0.747-1.936 1.934-4.18 5.075-3.878 9.047 0.375 4.932 4.555 10.581 11.778 15.911l50.737 36.393c5.758 4.131 8.961 10.954 8.457 18.024-0.504 7.068-4.639 13.371-10.923 16.643l-0.477 0.249c-2.909 1.516-6.142 2.307-9.422 2.307h-209.862c-8.049 0-14.599 6.55-14.599 14.599s6.548 14.599 14.599 14.599h162.589c11.266 0 20.398 9.134 20.398 20.398s-9.132 20.398-20.398 20.398h-219.388c-8.049 0-14.599 6.55-14.599 14.599s6.55 14.601 14.599 14.601zM338.476 414.716c-0.594 1.142-1.279 2.203-2.044 3.182l-9.416 13.669c-23.868 34.659-63.241 55.351-105.323 55.351h-83.505c-41.256 0-74.079-12.884-97.563-38.294-39.242-42.461-36.962-104.888-36.433-113.594v-192.095c0-30.546 24.851-55.396 55.396-55.396 5.051 0 9.946 0.679 14.599 1.952v-62.449c0-30.546 24.851-55.396 55.396-55.396 6.097 0 11.968 0.989 17.457 2.819 7.366-21.955 28.135-37.816 52.538-37.816 30.546 0 55.396 24.851 55.396 55.396v3.356c4.653-1.273 9.548-1.952 14.599-1.952 30.544 0 55.396 24.851 55.396 55.396v147.26c16.002-21.677 33.647-27.315 45.645-28.225 14.921-1.128 29.861 4.594 40.978 15.711 15.178 15.178 28.431 41.264 5.687 79.454l-78.803 151.674zM382.744 212.436c-1.936-1.936-5.081-4.18-9.047-3.878-4.93 0.373-10.581 4.555-15.911 11.776l-36.393 50.735c-4.127 5.754-10.931 8.957-18.008 8.459-7.062-0.498-13.363-4.622-16.645-10.897l-0.251-0.477c-1.526-2.917-2.321-6.16-2.321-9.453v-209.862c0-8.049-6.548-14.599-14.599-14.599s-14.599 6.55-14.599 14.599v162.589c0 11.264-9.132 20.398-20.398 20.398s-20.398-9.134-20.398-20.398v-219.388c0-8.049-6.55-14.599-14.599-14.599s-14.599 6.55-14.599 14.599v215.147c0 11.264-9.132 20.398-20.398 20.398s-20.398-9.134-20.398-20.398v-180.15c0-8.049-6.55-14.599-14.599-14.599s-14.599 6.55-14.599 14.599v198.51c0 11.264-9.132 20.398-20.398 20.398s-20.398-9.134-20.398-20.398v-82.617c0-8.049-6.55-14.599-14.599-14.599s-14.599 6.55-14.599 14.599c0 0-0.020 193.843-0.063 194.378-0.041 0.514-3.254 52.332 25.663 83.621 15.446 16.712 38.19 25.188 67.602 25.188h83.507c28.656 0 55.469-14.091 71.725-37.694l9.579-13.908 78.364-150.833c0.2-0.383 0.412-0.761 0.634-1.132 11.611-19.25 5.332-25.529 0.747-30.114zM91.297 390.23c-10.905 2.835-22.040-3.704-24.876-14.605-2.693-10.35-3.217-19.662-3.184-25.651 0.014-2.489 0.129-4.11 0.163-4.547 0.851-10.685 9.791-18.85 20.329-18.85 0.539 0 1.081 0.022 1.626 0.063 11.231 0.893 19.617 10.654 18.724 21.885-0.014 0.21-0.041 0.798-0.045 1.677-0.016 2.911 0.204 8.749 1.871 15.152 2.835 10.903-3.704 22.040-14.607 24.876zM177.457 429.642h-39.707c-11.266 0-20.398-9.134-20.398-20.398s9.132-20.398 20.398-20.398h39.707c11.266 0 20.398 9.134 20.398 20.398s-9.132 20.398-20.398 20.398zM964.623 186.995h-3.358c1.273 4.653 1.952 9.55 1.952 14.599 0 30.546-24.851 55.396-55.396 55.396h-147.26c21.673 16 27.315 33.645 28.223 45.643 1.132 14.925-4.594 29.863-15.711 40.98-15.18 15.178-41.264 28.429-79.456 5.687l-151.672-78.803c-1.144-0.596-2.209-1.285-3.188-2.052l-13.663-9.408c-34.657-23.868-55.349-63.241-55.349-105.323v-83.507c0-41.256 12.884-74.079 38.294-97.563 35.748-33.037 85.648-36.646 105.725-36.646 3.77 0 6.491 0.129 7.866 0.212h192.097c30.546 0 55.396 24.851 55.396 55.396 0 5.051-0.679 9.946-1.952 14.599h62.449c30.546 0 55.396 24.851 55.396 55.394 0 6.095-0.991 11.968-2.817 17.459 21.953 7.366 37.814 28.135 37.814 52.538 0.004 30.546-24.847 55.398-55.392 55.398zM964.623 117h-215.149c-11.266 0-20.398-9.134-20.398-20.398s9.132-20.398 20.398-20.398h180.152c8.049 0 14.599-6.55 14.599-14.599s-6.55-14.597-14.599-14.597h-198.512c-11.266 0-20.398-9.134-20.398-20.398s9.132-20.398 20.398-20.398h82.617c8.049 0 14.599-6.55 14.599-14.599s-6.55-14.599-14.599-14.599h-192.774c-0.496 0-1.053-0.022-1.544-0.057-0.522-0.041-52.373-3.451-83.843 25.806-16.604 15.439-25.025 38.133-25.025 67.451v83.507c0 28.658 14.089 55.467 37.692 71.721l13.914 9.581 150.829 78.364c0.383 0.2 0.761 0.412 1.132 0.636 19.254 11.613 25.533 5.332 30.12 0.747 1.936-1.934 4.18-5.075 3.878-9.047-0.375-4.932-4.555-10.581-11.778-15.911l-50.737-36.393c-5.758-4.131-8.961-10.954-8.457-18.024 0.504-7.068 4.639-13.371 10.923-16.643l0.477-0.249c2.909-1.516 6.142-2.307 9.422-2.307h209.862c8.049 0 14.599-6.55 14.599-14.599s-6.548-14.599-14.599-14.599h-162.589c-11.266 0-20.398-9.134-20.398-20.398s9.132-20.398 20.398-20.398h219.388c8.049 0 14.599-6.55 14.599-14.599s-6.548-14.601-14.597-14.601z" />
<glyph unicode="&#xe950;" d="M703.622 490.69l0.035 0.016 10.126-14.703c20.058-29.125 53.158-46.52 88.523-46.52h83.507c123.926 0 113.598 130.81 113.598 130.81v192.772c0 19.329-15.668 34.997-34.997 34.997s-34.997-15.668-34.997-34.997v115.897c0 19.329-15.668 34.997-34.997 34.997v0c-19.329 0-34.997-15.668-34.997-34.997v34.997c0 19.329-15.668 34.997-34.997 34.997v0c-19.329 0-34.997-15.668-34.997-34.997v-56.799c0 19.329-15.668 34.997-34.997 34.997v0c-19.329 0-34.997-15.668-34.997-34.997v-209.862l-0.249-0.477-36.47 50.843c-19.123 26.010-42.212 23.995-55.879 10.328v0c-13.667-13.667-16.829-30.981-2.295-55.078l79.084-152.225z" />
<glyph unicode="&#xe951;" d="M472.646 643.604l-0.016 0.035 14.703 10.126c29.125 20.058 46.52 53.158 46.52 88.523v83.505c0 123.926-130.81 113.598-130.81 113.598h-192.772c-19.329 0-34.997-15.668-34.997-34.997s15.668-34.997 34.997-34.997h-115.897c-19.329 0-34.997-15.668-34.997-34.997v0c0-19.329 15.668-34.997 34.997-34.997h-34.997c-19.329 0-34.997-15.668-34.997-34.997v0c0-19.329 15.668-34.997 34.997-34.997h56.799c-19.329 0-34.997-15.668-34.997-34.997v0c0-19.329 15.668-34.997 34.997-34.997h209.862l0.477-0.249-50.843-36.47c-26.010-19.123-23.995-42.212-10.328-55.879v0c13.667-13.667 30.981-16.829 55.078-2.295l152.225 79.086z" />
<glyph unicode="&#xe952;" d="M320.376 405.312l-0.035-0.016-10.126 14.703c-20.058 29.125-53.158 46.52-88.523 46.52h-83.505c-123.926 0-113.598-130.81-113.598-130.81v-192.772c0-19.329 15.668-34.997 34.997-34.997s34.997 15.668 34.997 34.997v-115.893c0-19.329 15.668-34.997 34.997-34.997v0c19.329 0 34.997 15.668 34.997 34.997v-34.997c0-19.329 15.668-34.997 34.997-34.997v0c19.329 0 34.997 15.668 34.997 34.997v56.799c0-19.329 15.668-34.997 34.997-34.997v0c19.329 0 34.997 15.668 34.997 34.997v209.858l0.249 0.477 36.468-50.843c19.123-26.010 42.212-23.995 55.879-10.328v0c13.667 13.667 16.829 30.981 2.295 55.078l-79.084 152.225z" />
<glyph unicode="&#xe953;" d="M551.352 252.398l0.016-0.035-14.703-10.126c-29.125-20.058-46.52-53.158-46.52-88.523v-83.507c0-123.926 130.81-113.598 130.81-113.598h192.772c19.329 0 34.997 15.668 34.997 34.997s-15.668 34.997-34.997 34.997h115.893c19.329 0 34.997 15.668 34.997 34.997v0c0 19.329-15.668 34.997-34.997 34.997h34.997c19.329 0 34.997 15.668 34.997 34.997v0c0 19.329-15.668 34.997-34.997 34.997h-56.799c19.329 0 34.997 15.668 34.997 34.997v0c0 19.329-15.668 34.997-34.997 34.997h-209.858l-0.477 0.249 50.843 36.468c26.010 19.123 23.995 42.212 10.328 55.879v0c-13.667 13.667-30.981 16.829-55.078 2.295l-152.225-79.082z" />
<glyph unicode="&#xe954;" d="M685.522 481.286c0.594-1.142 1.279-2.203 2.044-3.182l9.416-13.669c23.868-34.659 63.241-55.351 105.323-55.351h83.507c41.256 0 74.079 12.884 97.563 38.294 39.242 42.461 36.962 104.888 36.433 113.594v192.095c0 30.546-24.851 55.396-55.396 55.396-5.051 0-9.946-0.679-14.599-1.952v62.449c0 30.546-24.851 55.396-55.396 55.396-6.097 0-11.968-0.989-17.457-2.819-7.366 21.955-28.135 37.816-52.538 37.816-30.546 0-55.396-24.851-55.396-55.396v-3.356c-4.653 1.273-9.548 1.952-14.599 1.952-30.544 0-55.396-24.851-55.396-55.396v-147.26c-16.002 21.677-33.647 27.315-45.645 28.225-14.921 1.13-29.861-4.594-40.978-15.711-15.178-15.178-28.431-41.264-5.687-79.454l78.801-151.674zM641.254 683.566c1.936 1.934 5.089 4.165 9.047 3.878 4.93-0.373 10.581-4.555 15.911-11.776l36.393-50.735c4.127-5.754 10.936-8.959 18.008-8.459 7.062 0.498 13.363 4.622 16.645 10.897l0.251 0.477c1.526 2.917 2.321 6.16 2.321 9.453v209.86c0 8.049 6.548 14.599 14.599 14.599s14.599-6.55 14.599-14.599v-162.589c0-11.264 9.132-20.398 20.398-20.398s20.398 9.134 20.398 20.398v219.388c0 8.049 6.55 14.599 14.599 14.599s14.599-6.55 14.599-14.599v-215.147c0-11.264 9.132-20.398 20.398-20.398s20.398 9.134 20.398 20.398v180.148c0 8.049 6.55 14.599 14.599 14.599s14.599-6.55 14.599-14.599v-198.51c0-11.264 9.132-20.398 20.398-20.398s20.398 9.134 20.398 20.398v82.617c0 8.049 6.55 14.599 14.599 14.599s14.599-6.55 14.599-14.599v-192.772c0-0.536 0.020-1.071 0.063-1.605 0.041-0.514 3.254-52.332-25.663-83.621-15.446-16.712-38.19-25.188-67.602-25.188h-83.507c-28.656 0-55.469 14.091-71.725 37.694l-9.579 13.908-78.364 150.833c-0.2 0.383-0.412 0.761-0.634 1.132-11.613 19.252-5.332 25.533-0.747 30.118z" />
<glyph unicode="&#xe955;" d="M59.375 709.005h3.358c-1.273-4.653-1.952-9.55-1.952-14.599 0-30.546 24.851-55.396 55.396-55.396h147.26c-21.673-16-27.315-33.645-28.223-45.643-1.132-14.925 4.594-29.863 15.711-40.98 9.31-9.31 22.722-17.893 40.513-17.893 11.217 0 24.176 3.415 38.942 12.206l151.672 78.803c1.144 0.596 2.209 1.285 3.188 2.052l13.663 9.408c34.657 23.868 55.349 63.241 55.349 105.323v83.505c0 41.256-12.884 74.079-38.294 97.563-42.465 39.244-104.896 36.968-113.592 36.435h-192.099c-30.546 0-55.396-24.851-55.396-55.396 0-5.051 0.679-9.946 1.952-14.599h-62.449c-30.546 0-55.396-24.851-55.396-55.394 0-6.095 0.991-11.968 2.817-17.459-21.953-7.368-37.814-28.137-37.814-52.538 0-30.546 24.851-55.398 55.396-55.398zM59.375 779.002h215.149c11.266 0 20.398 9.134 20.398 20.398s-9.132 20.398-20.398 20.398h-180.152c-8.049 0-14.599 6.55-14.599 14.599s6.55 14.597 14.599 14.597h198.51c11.266 0 20.398 9.134 20.398 20.398s-9.132 20.398-20.398 20.398h-82.617c-8.049 0-14.599 6.55-14.599 14.599s6.55 14.599 14.599 14.599h192.774c0.496 0 1.053 0.022 1.544 0.057 0.518 0.043 52.375 3.453 83.843-25.806 16.604-15.439 25.025-38.133 25.025-67.451v-83.507c0-28.658-14.089-55.467-37.692-71.721l-13.914-9.581-150.829-78.364c-0.383-0.2-0.761-0.412-1.132-0.636-19.254-11.613-25.533-5.334-30.12-0.747-1.936 1.934-4.18 5.075-3.878 9.047 0.375 4.932 4.555 10.581 11.778 15.911l50.737 36.393c5.758 4.131 8.961 10.954 8.457 18.024-0.504 7.068-4.639 13.371-10.923 16.643l-0.477 0.249c-2.909 1.516-6.142 2.307-9.422 2.307h-209.862c-8.049 0-14.599 6.55-14.599 14.599s6.548 14.599 14.599 14.599h162.589c11.266 0 20.398 9.134 20.398 20.398s-9.132 20.398-20.398 20.398h-219.388c-8.049 0-14.599 6.55-14.599 14.599s6.55 14.601 14.599 14.601z" />
<glyph unicode="&#xe956;" d="M338.476 414.716c-0.594 1.142-1.279 2.203-2.044 3.182l-9.416 13.669c-23.868 34.659-63.241 55.351-105.323 55.351h-83.505c-41.256 0-74.079-12.884-97.563-38.294-39.242-42.461-36.962-104.888-36.433-113.594v-192.095c0-30.546 24.851-55.396 55.396-55.396 5.051 0 9.946 0.679 14.599 1.952v-62.449c0-30.546 24.851-55.396 55.396-55.396 6.097 0 11.968 0.989 17.457 2.819 7.366-21.955 28.135-37.816 52.538-37.816 30.546 0 55.396 24.851 55.396 55.396v3.356c4.653-1.273 9.548-1.952 14.599-1.952 30.544 0 55.396 24.851 55.396 55.396v147.26c16.002-21.677 33.647-27.315 45.645-28.225 14.921-1.128 29.861 4.594 40.978 15.711 15.178 15.178 28.431 41.264 5.687 79.454l-78.803 151.674zM382.744 212.436c-1.936-1.936-5.081-4.18-9.047-3.878-4.93 0.373-10.581 4.555-15.911 11.776l-36.393 50.735c-4.127 5.754-10.931 8.957-18.008 8.459-7.062-0.498-13.363-4.622-16.645-10.897l-0.251-0.477c-1.526-2.917-2.321-6.16-2.321-9.453v-209.862c0-8.049-6.548-14.599-14.599-14.599s-14.599 6.55-14.599 14.599v162.589c0 11.264-9.132 20.398-20.398 20.398s-20.398-9.134-20.398-20.398v-219.388c0-8.049-6.55-14.599-14.599-14.599s-14.599 6.55-14.599 14.599v215.147c0 11.264-9.132 20.398-20.398 20.398s-20.398-9.134-20.398-20.398v-180.15c0-8.049-6.55-14.599-14.599-14.599s-14.599 6.55-14.599 14.599v198.51c0 11.264-9.132 20.398-20.398 20.398s-20.398-9.134-20.398-20.398v-82.617c0-8.049-6.55-14.599-14.599-14.599s-14.599 6.55-14.599 14.599v192.772c0 0.536-0.020 1.071-0.063 1.605-0.041 0.514-3.254 52.332 25.663 83.621 15.446 16.712 38.19 25.188 67.602 25.188h83.507c28.656 0 55.469-14.091 71.725-37.694l9.579-13.908 78.364-150.833c0.2-0.383 0.412-0.761 0.634-1.132 11.611-19.25 5.332-25.529 0.747-30.114z" />
<glyph unicode="&#xe957;" d="M91.297 390.23c-10.905 2.835-22.040-3.704-24.876-14.605-2.693-10.35-3.217-19.662-3.184-25.651 0.014-2.489 0.129-4.11 0.163-4.547 0.851-10.685 9.791-18.85 20.329-18.85 0.539 0 1.081 0.022 1.626 0.063 11.231 0.893 19.617 10.654 18.724 21.885-0.014 0.21-0.041 0.798-0.045 1.677-0.016 2.911 0.204 8.749 1.871 15.152 2.835 10.903-3.704 22.040-14.607 24.876z" />
<glyph unicode="&#xe958;" d="M177.457 429.642h-39.707c-11.266 0-20.398-9.134-20.398-20.398s9.132-20.398 20.398-20.398h39.707c11.266 0 20.398 9.134 20.398 20.398s-9.132 20.398-20.398 20.398z" />
<glyph unicode="&#xe959;" d="M964.623 186.995h-3.358c1.273 4.653 1.952 9.55 1.952 14.599 0 30.546-24.851 55.396-55.396 55.396h-147.26c21.673 16 27.315 33.645 28.223 45.643 1.132 14.925-4.594 29.863-15.711 40.98-15.18 15.178-41.264 28.429-79.456 5.687l-151.672-78.803c-1.144-0.596-2.209-1.285-3.188-2.052l-13.663-9.408c-34.657-23.868-55.349-63.241-55.349-105.323v-83.507c0-41.256 12.884-74.079 38.294-97.563 35.748-33.037 85.648-36.646 105.725-36.646 3.77 0 6.491 0.129 7.866 0.212h192.097c30.546 0 55.396 24.851 55.396 55.396 0 5.051-0.679 9.946-1.952 14.599h62.449c30.546 0 55.396 24.851 55.396 55.394 0 6.095-0.991 11.968-2.817 17.459 21.953 7.366 37.814 28.135 37.814 52.538 0.004 30.546-24.847 55.398-55.392 55.398zM964.623 117h-215.149c-11.266 0-20.398-9.134-20.398-20.398s9.132-20.398 20.398-20.398h180.152c8.049 0 14.599-6.55 14.599-14.599s-6.55-14.597-14.599-14.597h-198.512c-11.266 0-20.398-9.134-20.398-20.398s9.132-20.398 20.398-20.398h82.617c8.049 0 14.599-6.55 14.599-14.599s-6.55-14.599-14.599-14.599h-192.774c-0.496 0-1.053-0.022-1.544-0.057-0.522-0.041-52.373-3.451-83.843 25.806-16.604 15.439-25.025 38.133-25.025 67.451v83.507c0 28.658 14.089 55.467 37.692 71.721l13.914 9.581 150.829 78.364c0.383 0.2 0.761 0.412 1.132 0.636 19.254 11.613 25.533 5.332 30.12 0.747 1.936-1.934 4.18-5.075 3.878-9.047-0.375-4.932-4.555-10.581-11.778-15.911l-50.737-36.393c-5.758-4.131-8.961-10.954-8.457-18.024 0.504-7.068 4.639-13.371 10.923-16.643l0.477-0.249c2.909-1.516 6.142-2.307 9.422-2.307h209.862c8.049 0 14.599-6.55 14.599-14.599s-6.548-14.599-14.599-14.599h-162.589c-11.266 0-20.398-9.134-20.398-20.398s9.132-20.398 20.398-20.398h219.388c8.049 0 14.599-6.55 14.599-14.599s-6.548-14.601-14.597-14.601z" />
<glyph unicode="&#xe95a;" d="M858.942 692.371l0.024-0.024c-17.232-20.014-27.676-46.086-27.676-74.61v-142.102c-17.162 0-33.852-1.98-49.858-5.728 6.318 17.752 9.5 36.28 9.5 54.88 0 35.572-11.528 71.146-34.606 100.59v213.788c0 28.336 22.96 51.32 51.296 51.32s51.32-22.984 51.32-51.32v-146.794z" />
<glyph unicode="&#xe95b;" d="M756.327 839.164v-213.79c-4.054 5.186-8.486 10.184-13.248 14.946-25.224 25.224-56.648 40.476-89.344 45.756v204.926c0 28.336 22.938 51.32 51.296 51.32 28.336 0 51.296-22.984 51.296-51.32v-51.838z" />
<glyph unicode="&#xe95c;" d="M653.733 766.768v-80.694c-8.676 1.39-17.422 2.098-26.19 2.098-26.308 0-52.616-6.318-76.45-18.954v97.55c0 28.336 22.984 51.32 51.32 51.32s51.32-22.984 51.32-51.32z" />
<glyph unicode="&#xe95d;" d="M472.899 766.768v-97.524c-31.754 16.832-67.916 22.442-102.616 16.832v80.692c0 28.336 22.984 51.32 51.296 51.32 28.336 0 51.32-22.984 51.32-51.32z" />
<glyph unicode="&#xe95e;" d="M417.445 714.93v51.838c0 19.838 11.25 37.040 27.714 45.58-7.060 3.662-15.074 5.74-23.58 5.74-28.336 0-51.272-22.984-51.272-51.32v-265.627c4.054 5.186 8.486 10.184 13.248 14.946 10.36 10.36 21.78 19.010 33.892 26.006l-0.002 172.838z" />
<glyph unicode="&#xe95f;" d="M598.231 714.93v51.838c0 19.838 11.25 37.040 27.714 45.58-7.060 3.662-15.074 5.74-23.58 5.74-28.336 0-51.272-22.984-51.272-51.32v-265.627c4.054 5.186 8.486 10.184 13.248 14.946 10.36 10.36 21.78 19.010 33.892 26.006l-0.002 172.838z" />
<glyph unicode="&#xe960;" d="M700.873 839.164v51.838c0 19.838 11.25 37.040 27.714 45.58-7.060 3.662-15.074 5.74-23.58 5.74-28.336 0-51.272-22.984-51.272-51.32v-265.627c4.054 5.186 8.486 10.184 13.248 14.946 10.36 10.36 21.78 19.010 33.892 26.006l-0.002 172.838z" />
<glyph unicode="&#xe961;" d="M803.464 787.324v51.84c0 19.838 11.25 37.040 27.714 45.58-7.060 3.662-15.074 5.74-23.58 5.74-28.336 0-51.272-22.984-51.272-51.32v-265.627c4.054 5.186 35.028-106.678 47.14-99.682l-0.002 313.469z" />
<glyph unicode="&#xe962;" d="M790.932 524.785c0-18.6-3.182-37.128-9.5-54.88-40.194-9.406-76.12-29.916-104.338-58.132-34.348-34.346-57.284-80.104-62.636-131.118l-102.452-102.474-102.476 102.476-0.142 1.344c-10.254 92.102-77.888 166.878-166.314 187.766-0.188 0.048-0.354 0.094-0.542 0.142-6.318 17.752-9.454 36.28-9.454 54.88v1.462c0 0.612 0 1.25 0.024 1.862 0.708 34.464 12.234 68.742 34.582 97.266 4.054 5.186 8.486 10.184 13.248 14.946 25.224 25.224 56.648 40.476 89.344 45.756 17.704 2.852 35.762 2.806 53.442-0.188 16.996-2.828 33.616-8.392 49.174-16.644 14.074-7.45 27.274-17.090 39.108-28.926 11.834 11.834 25.036 21.476 39.086 28.902 23.834 12.636 50.142 18.954 76.45 18.954 8.77 0 17.516-0.708 26.19-2.098 32.696-5.28 64.12-20.532 89.344-45.756 4.762-4.762 9.194-9.76 13.248-14.946 23.086-29.45 34.614-65.022 34.614-100.594z" />
<glyph unicode="&#xe963;" d="M513.187 178.18l-103.796 103.82c-10.254 92.102-77.888 166.878-166.312 187.766-6.6 18.034-9.924 36.988-9.996 55.94v0.542c0 0.612 0 1.25 0.024 1.862 0.448 41.396 16.478 82.602 48.044 114.168 39.886 39.91 95.238 54.95 146.794 45.168-1.414-0.472-2.806-0.966-4.22-1.556-7.59-3.088-15.016-7.826-22.088-14.192-8.346-7.52-16.196-17.326-23.22-29.42-37.222-64.074-37.222-167.964 0-232.036l134.77-232.062z" />
<glyph unicode="&#xe964;" d="M781.432 469.905c16.006 3.748 32.696 5.728 49.858 5.728v142.102c0 28.524 10.444 54.596 27.676 74.612 1.862 2.168 3.818 4.266 5.822 6.27 20.698 20.722 49.292 33.522 80.906 33.522 11.174 0 20.25-9.076 20.25-20.25v-443.303c0-19.636-6.248-38.778-17.868-54.62l-123.22-168.010v-92.268h-312.847v224.492l102.452 102.476c5.352 51.014 28.288 96.77 62.636 131.118 28.216 28.216 64.142 48.726 104.336 58.132z" />
<glyph unicode="&#xe965;" d="M370.283 766.768v-80.694c-32.696-5.28-64.12-20.532-89.344-45.756-4.762-4.762-9.194-9.76-13.248-14.946v265.629c0 28.336 22.938 51.32 51.272 51.32 28.36 0 51.32-22.984 51.32-51.32v-124.234z" />
<glyph unicode="&#xe966;" d="M314.827 839.164v51.838c0 19.838 11.25 37.040 27.714 45.58-7.060 3.662-15.074 5.74-23.58 5.74-28.336 0-51.272-22.984-51.272-51.32v-265.627c4.054 5.186 8.486 10.184 13.248 14.946 10.36 10.36 21.78 19.010 33.892 26.006v172.838z" />
<glyph unicode="&#xe967;" d="M267.689 625.373c-23.078-29.444-34.606-65.016-34.606-100.59 0-18.6 3.136-37.128 9.454-54.88-16.006 3.748-32.674 5.728-49.812 5.728v142.102c0 28.524-10.444 54.596-27.7 74.612l0.024 0.024v146.796c0 28.336 22.984 51.32 51.32 51.32s51.32-22.984 51.32-51.32v-213.792z" />
<glyph unicode="&#xe968;" d="M213.462 782.586v51.838c0 19.838 11.25 37.040 27.714 45.58-7.060 3.662-15.074 5.74-23.58 5.74-28.336 0-51.272-22.984-51.272-51.32v-265.627c4.054 5.186 8.486-97.926 13.248-93.164 10.36 10.36 21.78-12.726 33.892-5.728v312.681z" />
<glyph unicode="&#xe969;" d="M409.533 280.655l102.476-102.476v-224.494h-312.871v92.268l-123.22 168.010c-11.598 15.842-17.868 34.984-17.868 54.62v443.305c0 5.586 2.264 10.656 5.94 14.31 3.654 3.678 8.746 5.94 14.332 5.94 34.654 0 65.724-15.418 86.704-39.792 17.256-20.014 27.7-46.086 27.7-74.612v-142.102c17.138 0 33.804-1.98 49.812-5.728 89.132-20.816 157.236-96.346 166.996-189.25z" />
<glyph unicode="&#xe96a;" d="M131.31 213.965c-11.598 15.842-17.868 34.984-17.868 54.62v443.303c0 4.974 1.802 9.528 4.788 13.048-12.432 4.632-25.868 7.202-39.908 7.202-5.586 0-10.678-2.264-14.332-5.94-3.678-3.654-5.94-8.722-5.94-14.31v-443.303c0-19.636 6.27-38.778 17.868-54.62l123.22-168.010v-92.268h55.394v92.268l-123.222 168.010z" />
<glyph unicode="&#xe96b;" d="M839.702 459.295c27.906 0 50.53 22.624 50.53 50.53v107.908c0 28.524 10.444 54.596 27.676 74.61 1.862 2.168 3.818 4.266 5.822 6.27 10.818 10.83 23.808 19.468 38.242 25.274-3.69 4.992-9.6 8.248-16.278 8.248-31.612 0-60.208-12.8-80.906-33.522-2.004-2.004-3.96-4.102-5.822-6.27-17.232-20.014-27.676-46.086-27.676-74.61v-158.44h8.412z" />
<glyph unicode="&#xe96c;" d="M585.511 251.705v-298.017h-73.502v224.492z" />
<glyph unicode="&#xe96d;" d="M350.921 256.603c-8.934 0-16.608 6.752-17.562 15.834-6.284 59.832-49.788 109.208-108.246 122.86-9.51 2.22-15.418 11.73-13.196 21.238s11.732 15.414 21.238 13.196c73.114-17.074 127.516-78.802 135.372-153.6 1.020-9.71-6.026-18.412-15.736-19.43-0.63-0.066-1.252-0.098-1.87-0.098z" />
<glyph unicode="&#xe96e;" d="M907.010 250.901c-9.764 0-17.68 7.916-17.68 17.68v119.85c0 9.764 7.916 17.68 17.68 17.68s17.68-7.916 17.68-17.68v-119.85c0-9.764-7.916-17.68-17.68-17.68z" />
<glyph unicode="&#xe96f;" d="M470.335 580.965c-4.524 0-9.050 1.726-12.502 5.18-6.188 6.188-13.178 11.364-20.778 15.386-12.372 6.558-26.436 10.022-40.678 10.022-4.646 0-9.312-0.372-13.866-1.108-9.646-1.56-18.718 4.992-20.276 14.632s4.992 18.718 14.632 20.276c6.414 1.038 12.978 1.562 19.508 1.562 19.996 0 39.786-4.886 57.23-14.134 10.71-5.67 20.546-12.95 29.23-21.632 6.904-6.904 6.904-18.098 0-25.002-3.45-3.456-7.976-5.182-12.5-5.182z" />
<glyph unicode="&#xe970;" d="M731.997 507.103c-9.764 0-17.68 7.916-17.68 17.68 0 19.34-6.494 38.276-18.288 53.326-2.172 2.776-4.566 5.474-7.124 8.034-12.99 12.986-29.372 21.388-47.386 24.298-4.62 0.74-9.33 1.118-13.976 1.118-9.764 0-17.68 7.916-17.68 17.68s7.916 17.68 17.68 17.68c6.516 0 13.11-0.528 19.594-1.568 25.414-4.104 48.496-15.932 66.77-34.206 3.57-3.57 6.924-7.35 9.964-11.24 16.638-21.228 25.808-47.914 25.808-75.124-0.002-9.76-7.916-17.678-17.682-17.678z" />
<glyph unicode="&#xe971;" d="M945.684 749.824c-25.302 0-48.954-7.164-69.062-19.55v108.894c0 38.044-30.95 68.994-68.994 68.994-12.41 0-24.052-3.31-34.124-9.066-4.016 34.242-33.18 60.904-68.468 60.904-38.044 0-68.994-30.95-68.994-68.994v-64.020c-9.958 5.584-21.426 8.786-33.632 8.786-38.044 0-68.994-30.95-68.994-68.994v-87.282c-7.444-4.548-14.612-9.622-21.41-15.274-6.802 5.656-13.972 10.736-21.426 15.288v87.268c0 38.044-30.95 68.994-68.994 68.994-12.206 0-23.676-3.198-33.632-8.786v64.020c0.002 38.044-30.948 68.994-68.992 68.994-35.288 0-64.45-26.662-68.47-60.906-10.070 5.756-21.714 9.066-34.124 9.066-38.044 0-68.994-30.95-68.994-68.994v-108.894c-20.108 12.386-43.762 19.55-69.062 19.55-20.924 0-37.946-17.022-37.946-37.946v-443.301c0-23.562 7.364-46.060 21.298-65.062l119.786-163.342v-86.488c0-9.764 7.916-17.68 17.68-17.68s17.68 7.916 17.68 17.68v92.278c0 3.76-1.2 7.424-3.422 10.454l-123.208 168.010c-9.456 12.894-14.454 28.162-14.454 44.152v443.299c0 1.426 1.16 2.586 2.586 2.586 53.336 0 96.726-43.39 96.726-96.726v-142.112c0-9.764 7.916-17.68 17.68-17.68 110.478 0 200.358-89.88 200.358-200.358v-57.716c0-9.764 7.916-17.68 17.68-17.68s17.68 7.916 17.68 17.68v36.882l65.884-65.884v-217.186c0-9.764 7.916-17.68 17.68-17.68s17.68 7.916 17.68 17.68v217.186l65.874 65.874v-36.874c0-9.764 7.916-17.68 17.68-17.68s17.68 7.916 17.68 17.68v57.716c0 110.478 89.88 200.358 200.36 200.358 9.764 0 17.68 7.916 17.68 17.68v142.112c0 53.336 43.39 96.726 96.726 96.726 1.426 0 2.586-1.16 2.586-2.586v-443.301c0-15.99-4.998-31.256-14.454-44.152l-123.208-168.010c-2.224-3.032-3.422-6.694-3.422-10.454v-92.278c0-9.764 7.916-17.68 17.68-17.68s17.68 7.916 17.68 17.68v86.488l119.786 163.346c13.934 19 21.298 41.5 21.298 65.062v443.301c0.006 20.924-17.018 37.948-37.942 37.948zM671.405 891.006c0 18.546 15.088 33.632 33.632 33.632 18.526 0 33.598-15.088 33.598-33.632v-223.286c-20.024 15.62-42.838 26.756-67.232 32.806v190.48h0.002zM568.779 766.778c0 18.546 15.088 33.632 33.632 33.632 18.546 0 33.632-15.088 33.632-33.632v-61.124c-2.826 0.13-5.66 0.208-8.508 0.208-20.302 0-40.084-3.362-58.758-9.752l0.002 70.668zM421.589 800.41c18.546 0 33.632-15.088 33.632-33.632v-70.664c-18.664 6.382-38.444 9.738-58.75 9.738-2.85 0-5.688-0.078-8.514-0.208v61.134c0 18.546 15.086 33.632 33.632 33.632zM285.365 891.006c0 18.546 15.074 33.632 33.598 33.632 18.546 0 33.632-15.088 33.632-33.632v-190.486c-24.406-6.046-47.22-17.18-67.232-32.798v223.284h0.002zM182.738 698.481v140.688c0 18.546 15.088 33.632 33.632 33.632s33.632-15.088 33.632-33.632v-207.892c-22.456-30.736-34.606-67.664-34.606-106.49 0-11.098 1.032-22.086 3.018-32.89-2.66 0.29-5.328 0.552-8.016 0.752v125.088c0.004 30.392-10.342 58.398-27.66 80.744zM597.637 288.827l-85.634-85.634-85.644 85.644c-12.502 93.948-80.546 170.582-169.94 195.71-3.738 13.046-5.662 26.54-5.662 40.24 0 38.946 15.156 75.532 42.682 103.032 27.52 27.52 64.108 42.676 103.032 42.676s75.512-15.156 103.032-42.676c6.902-6.902 18.092-6.904 24.998-0.008 27.56 27.53 64.152 42.69 103.036 42.69 38.888 0 75.478-15.16 103.038-42.69 27.52-27.492 42.678-64.078 42.678-103.024 0-13.664-1.936-27.16-5.698-40.248-89.384-25.134-157.418-101.768-169.918-195.712zM813.598 617.739v-125.088c-2.69-0.2-5.36-0.462-8.024-0.752 2 10.82 3.036 21.81 3.036 32.89 0 38.83-12.152 75.762-34.616 106.502v207.878c0 18.546 15.088 33.632 33.632 33.632 18.546 0 33.632-15.088 33.632-33.632v-140.688c-17.312-22.346-27.66-50.352-27.66-80.742z" />
<glyph unicode="&#xe972;" d="M924.68 445.009c0-9.764-7.916-17.68-17.68-17.68s-17.68 7.916-17.68 17.68c0 9.764 7.916 17.68 17.68 17.68s17.68-7.916 17.68-17.68z" />
<glyph unicode="&#xe973;" glyph-name="heart-1" d="M496.127 256.374c-3.792 29.408-25.432 66.465-49.256 84.365l-105.313 79.198c-15.505 11.643-32.17 14.375-45.705 7.514-12.138-6.187-19.402-18.973-20.309-35.472-0.819-2.351-1.375-5.132-1.314-8.363 0.158-7.877 3.923-15.361 11.161-22.165 4.598-4.493 21.381-30.253 35.279-53.022l-111.456 37.767c-21.009 7.102-51.297 27.039-66.136 43.503l-85.122 94.611c-18.399 20.44-33.397 18.194-40.713 15.050-7.291-3.161-19.196-12.545-16.968-39.308 0.311-6.358 1.589-27.849 5.193-38.147 16.595-47.461 56.048-100.536 57.335-102.23 15.601-22.581 46.042-51.743 69.315-66.395l154.284-97.116c17.243-10.85 36.584-37.701 41.664-58.517 4.033-16.534 14.244-30.13 28.742-38.288 9.011-5.079 18.951-7.636 29.101-7.636 6.262 0 12.602 0.968 18.85 2.956l55.295 17.519c32.241 10.229 54.112 44.453 49.795 77.919l-13.723 106.259zM449.354 105.921l-55.286-17.519c-6.945-2.159-14.003-1.537-19.91 1.8-5.872 3.302-10.032 8.915-11.976 16.88-6.98 28.611-31.987 63.338-56.937 79.045l-154.284 97.116c-19.17 12.059-46.209 37.959-59.441 57.085-0.372 0.499-37.845 50.881-52.663 93.262-0.95 2.728-2.15 12.147-2.886 22.253l80.805-89.808c18.824-20.904 54.449-44.335 81.090-53.35l114.963-38.958c25.883-8.792 38.104 0.469 43.082 6.756 4.97 6.27 11.17 20.234-3.074 43.144-9.112 15.050-30.493 49.707-42.080 62.493 0.053 0.604 0.079 1.226 0.070 1.83-0.079 5.272 1.086 7.807 0.648 7.807 0.801 0.175 3.923-0.433 8.819-4.094l105.304-79.18c16.284-12.252 32.845-40.582 35.437-60.628l13.719-106.254c2.124-16.477-9.506-34.631-25.401-39.68zM1006.787 499.358c-7.317 3.144-22.314 5.39-40.713-15.050l-85.122-94.611c-14.84-16.464-45.127-36.405-66.145-43.503l-111.447-37.767c13.819 22.651 30.677 48.516 35.253 52.987 7.264 6.84 11.030 14.323 11.188 22.2 0.061 3.231-0.49 6.012-1.314 8.363-0.906 16.499-8.171 29.285-20.309 35.472-13.552 6.857-30.191 4.129-45.714-7.531l-105.304-79.18c-23.825-17.9-45.464-54.957-49.256-84.365l-13.719-106.254c-4.317-33.467 17.554-67.691 49.795-77.919l55.303-17.519c6.235-1.988 12.576-2.956 18.842-2.956 10.15 0 20.094 2.557 29.101 7.636 14.494 8.153 24.705 21.754 29 39.325 4.821 19.783 24.162 46.629 41.405 57.48l154.284 97.116c23.273 14.651 53.714 43.814 68.926 65.86 1.677 2.229 41.129 55.303 57.725 102.764 3.604 10.299 4.882 31.79 5.149 37.526 2.268 27.385-9.638 36.764-16.928 39.925zM985.161 433.585c-14.778-42.277-52.291-92.763-53.048-93.797-12.847-18.592-39.886-44.488-59.051-56.547l-154.284-97.116c-24.95-15.706-49.957-50.434-57.195-80.078-1.686-6.927-5.841-12.545-11.713-15.842-5.929-3.354-12.983-3.972-19.901-1.8l-55.295 17.519c-15.895 5.044-27.525 23.203-25.397 39.667l13.719 106.254c2.592 20.041 19.153 48.376 35.437 60.628l105.295 79.163c4.913 3.696 8.105 4.217 7.974 4.58 0.416-0.469 1.581-3.004 1.502-8.276-0.009-0.604 0.018-1.226 0.070-1.83-10.373-10.833-32.705-47.010-41.966-62.301-14.358-23.102-8.153-37.057-3.188-43.332 4.974-6.288 17.208-15.531 43.082-6.756l114.955 38.958c26.649 9.020 62.274 32.446 81.098 53.35l80.805 89.808c-0.718-9.883-1.927-19.49-2.899-22.253zM736.475 689.408c9.322 30.909 1.988 64.722-20.654 95.215-26.916 36.247-69.893 59.66-109.486 59.66-35.989 0-69.858-14.686-94.322-40.135-24.464 25.449-58.338 40.135-94.327 40.135-39.592 0-82.57-23.409-109.486-59.66-22.642-30.493-29.977-64.306-20.654-95.215 19.971-66.154 194.056-198.273 213.848-213.113 3.144-2.369 6.879-3.542 10.618-3.542s7.474 1.173 10.618 3.542c19.792 14.84 193.877 146.959 213.844 213.113zM512.004 512.648c-71.636 54.87-178.665 147.493-190.58 186.989-8.114 26.881 6.030 51.573 15.177 63.89 20.164 27.144 52.746 45.372 81.081 45.372 32.048 0 61.801-15.965 79.596-42.71 6.546-9.883 22.909-9.883 29.456 0 17.795 26.745 47.549 42.71 79.596 42.71 28.335 0 60.921-18.229 81.081-45.372 9.147-12.317 23.29-37.009 15.177-63.89-11.906-39.461-118.944-132.102-190.584-186.989z" />
<glyph unicode="&#xe974;" d="M414.148 369.302c-14.476 0-26.212 11.736-26.212 26.212v319.134c0 12.286-9.994 22.28-22.28 22.28s-22.28-9.994-22.28-22.28v-319.138c0-14.476-11.736-26.212-26.212-26.212s-26.212 11.736-26.212 26.212v319.138c0 41.192 33.512 74.704 74.704 74.704s74.704-33.512 74.704-74.704v-319.138c0-14.474-11.736-26.208-26.212-26.208z" />
<glyph unicode="&#xe975;" d="M220.18 369.302c-14.476 0-26.212 11.736-26.212 26.212v343.382c0 12.286-9.994 22.28-22.28 22.28s-22.28-9.994-22.28-22.28v-67.090c0-14.476-11.736-26.212-26.212-26.212s-26.212 11.736-26.212 26.212v67.090c0 41.192 33.512 74.704 74.704 74.704s74.704-33.512 74.704-74.704v-343.386c0-14.474-11.736-26.208-26.212-26.208z" />
<glyph unicode="&#xe976;" d="M317.164 369.302c-14.476 0-26.212 11.736-26.212 26.212v391.88c0 12.286-9.994 22.28-22.28 22.28s-22.28-9.994-22.28-22.28v-391.882c0-14.476-11.736-26.212-26.212-26.212s-26.212 11.736-26.212 26.212v391.882c0 41.192 33.512 74.704 74.704 74.704s74.704-33.512 74.704-74.704v-391.882c0-14.476-11.736-26.21-26.212-26.21z" />
<glyph unicode="&#xe977;" d="M140.64 104.492c-9.572 0-18.796 5.264-23.412 14.39-9.59 18.966-23.646 35.732-40.65 48.484-47.95 35.968-76.578 93.228-76.578 153.168v210.3c0 41.192 33.512 74.704 74.704 74.704s74.704-33.512 74.704-74.704v-113.5c0-14.476-11.736-26.212-26.212-26.212s-26.212 11.736-26.212 26.212v113.5c0 12.286-9.994 22.28-22.28 22.28s-22.28-9.994-22.28-22.28v-210.3c0-43.53 20.788-85.112 55.612-111.232 23.412-17.562 42.77-40.65 55.976-66.766 6.532-12.918 1.356-28.686-11.564-35.218-3.792-1.918-7.83-2.826-11.808-2.826z" />
<glyph unicode="&#xe978;" d="M511.132 369.302c-14.476 0-26.212 11.736-26.212 26.212v246.39c0 12.286-9.994 22.28-22.28 22.28s-22.28-9.994-22.28-22.28v-246.392c0-14.476-11.736-26.212-26.212-26.212s-26.212 11.736-26.212 26.212v246.392c0 41.192 33.512 74.704 74.704 74.704s74.704-33.512 74.704-74.704v-246.392c-0.002-14.476-11.736-26.21-26.212-26.21z" />
<glyph unicode="&#xe979;" d="M706.836 369.302c-14.476 0-26.212 11.736-26.212 26.212v319.134c0 12.286-9.994 22.28-22.28 22.28s-22.28-9.994-22.28-22.28v-319.138c0-14.476-11.736-26.212-26.212-26.212s-26.212 11.736-26.212 26.212v319.138c0 41.192 33.512 74.704 74.704 74.704s74.704-33.512 74.704-74.704v-319.138c0-14.474-11.734-26.208-26.212-26.208z" />
<glyph unicode="&#xe97a;" d="M803.82 369.302c-14.476 0-26.212 11.736-26.212 26.212v343.382c0 41.192 33.512 74.704 74.704 74.704s74.704-33.512 74.704-74.704v-67.090c0-14.476-11.736-26.212-26.212-26.212s-26.212 11.736-26.212 26.212v67.090c0 12.286-9.994 22.28-22.28 22.28s-22.28-9.994-22.28-22.28v-343.386c0-14.474-11.734-26.208-26.212-26.208z" />
<glyph unicode="&#xe97b;" d="M803.82 369.302c-14.476 0-26.212 11.736-26.212 26.212v391.88c0 12.286-9.994 22.28-22.28 22.28s-22.28-9.994-22.28-22.28v-391.882c0-14.476-11.736-26.212-26.212-26.212s-26.212 11.736-26.212 26.212v391.882c0 41.192 33.512 74.704 74.704 74.704s74.704-33.512 74.704-74.704v-391.882c0-14.476-11.734-26.21-26.212-26.21z" />
<glyph unicode="&#xe97c;" d="M883.36 104.492c-3.98 0-8.016 0.906-11.806 2.826-12.92 6.532-18.096 22.302-11.564 35.218 13.206 26.118 32.562 49.204 55.976 66.77 34.822 26.118 55.612 67.7 55.612 111.23v210.3c0 12.286-9.994 22.28-22.28 22.28s-22.28-9.994-22.28-22.28v-113.5c0-14.476-11.734-26.212-26.212-26.212-14.476 0-26.212 11.736-26.212 26.212v113.5c0 41.192 33.512 74.704 74.704 74.704s74.704-33.512 74.704-74.704v-210.3c0-59.942-28.628-117.202-76.578-153.168-17.004-12.754-31.058-29.52-40.65-48.486-4.618-9.128-13.842-14.39-23.414-14.39z" />
<glyph unicode="&#xe97d;" d="M609.852 369.302c-14.476 0-26.212 11.736-26.212 26.212v246.39c0 12.286-9.994 22.28-22.28 22.28s-22.28-9.994-22.28-22.28v-246.392c0-14.476-11.736-26.212-26.212-26.212s-26.212 11.736-26.212 26.212v246.392c0 41.192 33.512 74.704 74.704 74.704s74.704-33.512 74.704-74.704v-246.392c0-14.476-11.734-26.21-26.212-26.21z" />
<glyph unicode="&#xe97e;" d="M640.364 573.102c-76.632 0-111.016-42.954-124.542-68.182-1.698-3.17-6.312-3.164-8.006 0.006-13.48 25.232-47.674 68.178-124.302 68.178-87.29 0-164.076-59.588-164.076-168.4 0-44.030 8.972-81.752 33.878-123.848 50.752-85.788 217.944-197 252.286-218.916 3.798-2.422 8.606-2.43 12.408-0.016 34.372 21.81 201.592 132.472 252.742 218.932 24.904 42.096 33.816 79.818 33.816 123.848-0.004 108.81-76.914 168.398-164.204 168.398z" />
<glyph unicode="&#xe97f;" d="M511.816 33.902v0c-7.206 0-14.23 2.052-20.316 5.938-20.728 13.226-204.146 131.992-260.748 227.666-25.954 43.874-37.53 86.184-37.53 137.196 0 58.628 19.882 108.436 57.498 144.042 34.452 32.61 81.614 50.57 132.792 50.57 65.956 0 105.558-27.522 128.474-54.296 22.298 25.54 62.122 54.296 128.378 54.296 51.184 0 98.36-17.958 132.844-50.562 37.664-35.612 57.57-85.424 57.57-144.050 0-51.082-11.556-93.392-37.468-137.196-57.016-96.384-240.522-214.56-261.258-227.718-6.066-3.848-13.066-5.886-20.236-5.886zM383.514 546.89c-68.622 0-137.866-43.966-137.866-142.188 0-41.642 9.040-74.69 30.224-110.502 45.942-77.658 199.010-180.862 235.99-205.086 72.738 46.982 196.554 137.858 236.326 205.086 21.142 35.738 30.164 68.786 30.164 110.502 0 98.222-69.304 142.188-137.992 142.188-59.752 0-88.146-29.56-101.442-54.358-5.356-9.992-15.74-16.198-27.098-16.198-11.382 0-21.774 6.226-27.126 16.244-13.238 24.774-41.54 54.312-101.18 54.312z" />
<glyph unicode="&#xe980;" glyph-name="heart-3" d="M310.724 291.618c18.244 0 35.396 7.1 48.282 20.002 8.84 8.824 14.456 19.558 17.426 30.84l35.858-35.84c12.886-12.902 30.038-20.002 48.264-20.002 18.244 0 35.38 7.1 48.264 20.002 12.902 12.886 20.002 30.038 20.002 48.264 0 18.244-7.1 35.38-20.002 48.282l-30.806 30.806c11.502 3.038 22.152 8.806 30.806 17.46 12.902 12.902 20.002 30.038 20.002 48.282 0 18.228-7.1 35.38-20.002 48.264l-42.888 42.888c11.52 3.038 22.17 8.806 30.822 17.46 12.902 12.886 20.002 30.020 20.002 48.264s-7.1 35.38-20.002 48.264l-121.036 121.054v117.026c0 9.42-7.646 17.066-17.066 17.066s-17.066-7.646-17.066-17.066v-90.794c-24.73 9.626-54.802 4.778-74.12-14.524-21.18-21.214-25.208-52.872-12.646-78.37-13.244-2.338-25.838-8.38-35.636-18.192-21.026-21.044-25.156-52.394-12.936-77.808-13.294-2.542-25.548-8.942-35.328-18.722-21.026-21.044-25.174-52.412-12.936-77.824-13.312-2.542-25.548-8.942-35.328-18.722-12.902-12.886-20.002-30.038-20.002-48.264 0-18.244 7.1-35.38 20.002-48.282l139.81-139.81c12.882-12.904 30.034-20.004 48.26-20.004zM291.592 813.482c6.452 6.434 15.018 9.984 24.132 9.984 9.13 0 17.698-3.55 24.15-9.984l132.746-132.762c6.452-6.452 10-15.018 10-24.132s-3.55-17.682-10-24.132c-12.902-12.886-35.38-12.886-48.264 0l-132.762 132.744c-13.296 13.314-13.296 34.97-0.002 48.282zM243.31 716.92c6.452 6.452 15.036 10.002 24.15 10.002s17.682-3.55 24.132-10.002l193.092-193.076c6.452-6.452 10-15.018 10-24.132 0-9.13-3.55-17.698-10-24.15-12.886-12.886-35.38-12.886-48.264 0l-168.96 168.96c-0.018 0.018-0.018 0.018-0.034 0.034l-24.116 24.098c-13.294 13.312-13.294 34.97 0 48.266zM195.046 620.39c6.452 6.434 15.018 9.984 24.15 9.984 9.096 0 17.664-3.532 24.098-9.95l241.39-241.408c6.452-6.434 10-15.002 10-24.132 0-9.114-3.55-17.682-10-24.132-12.886-12.886-35.38-12.886-48.264 0l-77.38 77.364c0 0.018-0.018 0.034-0.034 0.052l-163.944 163.944c-13.31 13.308-13.31 34.966-0.016 48.278zM136.78 499.712c0 9.114 3.55 17.682 10.002 24.132 6.452 6.434 15.018 9.984 24.132 9.984 9.13 0 17.698-3.55 24.132-9.984l139.88-139.88c13.244-13.312 13.244-34.918-0.052-48.214-12.886-12.886-35.38-12.902-48.282 0l-139.81 139.81c-6.452 6.454-10.002 15.022-10.002 24.152zM853.086 533.334c0-9.42 7.628-17.066 17.066-17.066 9.42 0 17.066 7.646 17.066 17.066 0 123.358-51.49 196.062-82.262 239.496-8.976 12.68-20.136 28.45-20.136 33.57v136.534c0 9.42-7.646 17.066-17.066 17.066-9.438 0-17.066-7.646-17.066-17.066v-136.534c0-15.974 11.076-31.642 26.436-53.3 30.24-42.718 75.962-107.264 75.962-219.766zM358.648 4.266c-9.42 0-17.066-7.646-17.066-17.066v-34.134c0-9.42 7.646-17.066 17.066-17.066s17.066 7.646 17.066 17.066v34.134c0 9.42-7.646 17.066-17.066 17.066zM811.34 513.4c-40.14 26.76-166.212 99.874-172.492 103.476-11.4 5.684-24.064 4.898-35.636-2.27-24.952-15.412-40.26-57.72-40.26-81.272 0-32.786 23.006-52.718 47.378-73.814 8.448-7.304 17.17-14.882 25.89-23.586l85.334-85.334c5.65-5.666 10.99-11.008 11.724-12.612 0.308-0.956 0.342-4.59 0.342-8.158-4.028-10.786-35.55-46.83-62.686-74l-188.262-171.178c-4.966-4.882-15.446-12.118-22.118-12.118h-153.6c-18.824 0-34.134 15.308-34.134 34.134s15.308 34.134 34.134 34.134h119.466c23.45 0 43.93 19.814 46.2 22.068l119.466 119.466c6.656 6.672 6.656 17.46 0 24.132-6.674 6.674-17.476 6.674-24.132 0l-119.416-119.416c-4.966-4.882-15.446-12.118-22.118-12.118h-170.666c-18.824 0-34.134 15.308-34.134 34.134 0 18.824 15.308 34.134 34.134 34.134h136.534c9.42 0 17.066 7.646 17.066 17.066s-7.646 17.066-17.066 17.066h-187.734c-18.824 0-34.134 15.308-34.134 34.134 0 8.43 3.088 16.504 8.686 22.75 6.298 7.032 5.7 17.818-1.314 24.116-7.032 6.298-17.818 5.684-24.098-1.332-11.23-12.526-17.408-28.69-17.408-45.534 0-35.192 26.846-63.898 61.082-67.55-6.144-10.24-9.882-22.068-9.882-34.85 0-35.192 26.846-63.898 61.082-67.55-6.144-10.24-9.882-22.068-9.882-34.85 0-37.65 30.618-68.266 68.266-68.266h153.6c23.45 0 43.93 19.814 45.62 21.504l188.314 171.23c73.268 73.268 73.268 91.426 73.268 97.4 0 22.648-2.782 26.914-22.068 46.2l-85.334 85.334c-9.574 9.592-19.2 17.902-27.682 25.258-23.382 20.258-35.584 31.59-35.584 48.008 0 21.538 18.364 53.026 25.566 53.504 1.296-0.75 130.492-75.656 169.762-101.836 44.134-29.422 94.806-75.742 94.806-173.534 0-73.25-57.6-172.562-95.71-238.268-27.238-46.95-40.328-70.212-40.328-85.998v-34.134c0-9.42 7.646-17.066 17.066-17.066s17.066 7.646 17.066 17.066v33.946c0.7 8.67 19.302 40.756 35.72 69.052 42.326 72.994 100.318 172.954 100.318 255.402 0 115.264-62.788 170.442-110.012 201.93z" />
<glyph unicode="&#xe981;" d="M702.602 699.634c8.112 26.884-6.030 51.572-15.178 63.892-20.164 27.142-52.748 45.37-81.082 45.37-32.050 0-61.8-15.964-79.596-42.71-6.548-9.882-22.91-9.882-29.458 0-17.796 26.744-47.546 42.71-79.596 42.71-28.334 0-60.92-18.228-81.082-45.37-9.148-12.318-23.29-37.008-15.178-63.892 11.912-39.496 118.946-132.118 190.584-186.992 71.64 54.89 178.672 147.532 190.586 186.992z" />
<glyph unicode="&#xe982;" d="M461.040 251.844c-2.592 20.042-19.152 48.376-35.436 60.626l-105.304 79.182c-4.898 3.662-8.016 4.268-8.82 4.094 0.44 0-0.726-2.54-0.648-7.81 0.008-0.604-0.018-1.226-0.070-1.832 11.584-12.786 32.964-47.444 42.078-62.492 14.246-22.91 8.042-36.87 3.076-43.142-4.976-6.29-17.2-15.55-43.080-6.756l-114.962 38.96c-26.642 9.018-62.268 32.446-81.090 53.352l-80.806 89.808c0.734-10.108 1.936-19.524 2.886-22.252 14.816-42.38 52.29-92.762 52.662-93.262 13.234-19.126 40.274-45.024 59.442-57.084l154.286-97.116c24.948-15.706 49.958-50.432 56.936-79.044 1.944-7.964 6.098-13.58 11.972-16.88 5.908-3.334 12.966-3.956 19.912-1.796l55.288 17.518c15.896 5.044 27.522 23.204 25.398 39.668l-13.72 106.258z" />
<glyph unicode="&#xe983;" d="M826.152 312.676l-114.954-38.96c-25.872-8.776-38.104 0.466-43.080 6.756-4.966 6.272-11.17 20.232 3.188 43.332 9.26 15.29 31.592 51.468 41.966 62.302-0.052 0.604-0.078 1.226-0.068 1.832 0.078 5.27-1.088 7.81-1.502 8.276 0.13-0.362-3.058-0.882-7.974-4.578l-105.296-79.164c-16.284-12.25-32.844-40.584-35.436-60.626l-13.718-106.254c-2.126-16.466 9.502-34.624 25.398-39.668l55.296-17.518c6.92-2.178 13.978-1.556 19.904 1.796 5.874 3.3 10.030 8.914 11.714 15.844 7.24 29.648 32.248 64.376 57.196 80.080l154.286 97.116c19.17 12.060 46.208 37.958 59.054 56.548 0.76 1.036 38.268 51.52 53.050 93.798 0.968 2.764 2.178 12.37 2.886 22.252l-80.806-89.808c-18.83-20.91-54.454-44.336-81.104-53.356z" />
<glyph unicode="&#xe984;" d="M496.13 256.37c-3.792 29.406-25.432 66.466-49.258 84.364l-105.314 79.2c-15.506 11.644-32.17 14.374-45.708 7.516-12.138-6.186-19.402-18.97-20.31-35.47-0.82-2.35-1.374-5.132-1.314-8.362 0.156-7.878 3.922-15.36 11.16-22.166 4.596-4.492 21.38-30.252 35.28-53.024l-111.456 37.768c-21.010 7.102-51.296 27.038-66.138 43.504l-85.124 94.61c-18.4 20.438-33.396 18.192-40.714 15.048-7.29-3.162-19.194-12.544-16.966-39.306 0.31-6.358 1.59-27.852 5.192-38.148 16.594-47.46 56.048-100.536 57.334-102.23 15.602-22.582 46.044-51.746 69.316-66.396l154.286-97.116c17.242-10.85 36.584-37.698 41.664-58.518 4.034-16.534 14.246-30.132 28.74-38.286 9.010-5.080 18.954-7.636 29.104-7.636 6.262 0 12.604 0.968 18.85 2.954l55.296 17.518c32.24 10.228 54.112 44.454 49.792 77.92l-13.712 106.256zM449.36 105.92l-55.288-17.518c-6.946-2.16-14.004-1.538-19.912 1.796-5.874 3.3-10.030 8.914-11.972 16.88-6.98 28.612-31.988 63.338-56.936 79.044l-154.286 97.116c-19.17 12.060-46.208 37.958-59.442 57.084-0.372 0.502-37.846 50.882-52.662 93.262-0.95 2.73-2.15 12.146-2.886 22.252l80.806-89.808c18.824-20.906 54.448-44.334 81.090-53.352l114.962-38.96c25.882-8.794 38.104 0.466 43.080 6.756 4.968 6.272 11.17 20.232-3.076 43.142-9.114 15.048-30.494 49.706-42.078 62.492 0.052 0.604 0.078 1.226 0.070 1.832-0.078 5.27 1.088 7.81 0.648 7.81 0.804 0.172 3.922-0.432 8.82-4.094l105.304-79.182c16.284-12.25 32.844-40.584 35.436-60.626l13.718-106.254c2.128-16.468-9.5-34.628-25.396-39.672z" />
<glyph unicode="&#xe985;" d="M1006.794 499.356c-7.316 3.144-22.314 5.39-40.714-15.048l-85.124-94.61c-14.842-16.466-45.128-36.404-66.146-43.504l-111.446-37.768c13.822 22.65 30.676 48.514 35.254 52.99 7.266 6.842 11.032 14.322 11.186 22.202 0.060 3.23-0.492 6.012-1.314 8.362-0.908 16.5-8.172 29.284-20.31 35.47-13.554 6.86-30.192 4.13-45.716-7.532l-105.304-79.182c-23.826-17.9-45.466-54.958-49.258-84.364l-13.718-106.254c-4.32-33.466 17.554-67.692 49.792-77.92l55.304-17.518c6.238-1.986 12.578-2.954 18.84-2.954 10.15 0 20.094 2.556 29.104 7.636 14.496 8.156 24.706 21.752 29 39.322 4.82 19.782 24.162 46.632 41.404 57.482l154.286 97.116c23.272 14.652 53.714 43.814 68.928 65.86 1.676 2.228 41.128 55.304 57.724 102.766 3.602 10.298 4.88 31.79 5.148 37.526 2.274 27.38-9.63 36.762-16.92 39.922zM985.17 433.582c-14.78-42.278-52.29-92.762-53.050-93.798-12.846-18.59-39.884-44.488-59.054-56.548l-154.286-97.116c-24.948-15.706-49.958-50.432-57.196-80.080-1.684-6.928-5.84-12.544-11.714-15.844-5.926-3.352-12.984-3.974-19.904-1.796l-55.296 17.518c-15.896 5.044-27.522 23.204-25.398 39.668l13.718 106.254c2.592 20.042 19.152 48.376 35.436 60.626l105.296 79.164c4.916 3.698 8.102 4.216 7.974 4.578 0.414-0.466 1.58-3.006 1.502-8.276-0.008-0.604 0.018-1.226 0.068-1.832-10.374-10.832-32.706-47.012-41.966-62.302-14.358-23.1-8.156-37.060-3.188-43.332 4.976-6.29 17.208-15.532 43.080-6.756l114.954 38.96c26.65 9.018 62.276 32.446 81.1 53.352l80.806 89.808c-0.704-9.878-1.914-19.484-2.882-22.248z" />
<glyph unicode="&#xe986;" d="M736.482 689.406c9.322 30.91 1.986 64.72-20.654 95.214-26.918 36.248-69.894 59.658-109.486 59.658-35.988 0-69.86-14.686-94.326-40.134-24.464 25.45-58.336 40.136-94.324 40.136-39.59 0-82.568-23.41-109.486-59.658-22.642-30.494-29.976-64.306-20.654-95.214 19.972-66.154 194.058-198.274 213.848-213.114 3.144-2.368 6.876-3.542 10.616-3.542s7.472 1.174 10.616 3.542c19.792 14.838 193.878 146.958 213.85 213.112zM321.432 699.634c-8.112 26.884 6.030 51.572 15.178 63.892 20.162 27.142 52.748 45.37 81.082 45.37 32.050 0 61.8-15.964 79.596-42.71 6.548-9.882 22.91-9.882 29.458 0 17.794 26.744 47.546 42.71 79.596 42.71 28.334 0 60.92-18.228 81.082-45.37 9.148-12.318 23.29-37.008 15.178-63.892-11.912-39.462-118.946-132.102-190.584-186.992-71.642 54.874-178.674 147.496-190.586 186.992z" />
<glyph unicode="&#xe987;" d="M1001.678 308.254c-39.242 0-292.871 0-323.366 0-31.664 0-57.334-25.67-57.334-57.334s25.667-57.334 57.334-57.334h26.938l-96.796-61.001-151.958 95.767c-26.786 16.878-62.189 8.851-79.076-17.938-16.881-26.789-8.851-62.192 17.938-79.076l182.53-115.032c18.676-11.771 42.459-11.774 61.138 0l281.297 177.277h81.359l-0.003 114.672z" />
<glyph unicode="&#xe988;" d="M573.706 548.454c-34.063 0.098-61.706-27.486-61.706-61.528 0 34.039-27.643 61.623-61.706 61.528-53.569-0.155-81.701-64.894-44.286-104.026l-0.018-0.006 84.323-87.65c11.839-12.304 31.533-12.304 43.37 0l84.308 87.656c37.468 39.185 9.211 103.874-44.284 104.026z" />
<glyph unicode="&#xe989;" d="M22.322 587.744c39.242 0 292.871 0 323.366 0 31.664 0 57.334 25.67 57.334 57.334s-25.667 57.334-57.334 57.334h-26.935l96.793 61.001 151.961-95.767c26.786-16.878 62.189-8.851 79.073 17.938 16.881 26.789 8.851 62.192-17.938 79.076l-182.53 115.032c-18.676 11.771-42.459 11.771-61.138 0l-281.294-177.28h-81.359v-114.669z" />
<glyph unicode="&#xe98a;" d="M1001.681 330.575h-323.369c-43.923 0-79.656-35.733-79.656-79.656 0-30.822 17.599-57.614 43.275-70.852l-33.477-21.099-140.062 88.266c-37.152 23.42-86.442 12.232-109.856-24.917-23.474-37.239-12.337-86.385 24.917-109.862l182.527-115.029c25.941-16.351 58.98-16.366 84.942 0l275.844 173.839h74.912c12.331 0 22.322 9.994 22.322 22.322v114.669c0.003 12.325-9.991 22.319-22.319 22.319zM979.359 215.907h-59.037c-4.211 0-8.339-1.19-11.902-3.438l-281.303-177.28c-11.185-7.054-26.137-7.057-37.328 0.003l-182.53 115.029c-16.372 10.316-21.274 31.911-10.956 48.29 10.301 16.343 31.968 21.238 48.29 10.953l151.961-95.767c7.271-4.583 16.533-4.583 23.804 0l91.341 57.566h29.688c12.331 0 22.322 9.994 22.322 22.322s-9.991 22.322-22.322 22.322c-35.548 0-27.899 0-63.073 0-19.304 0-35.013 15.706-35.013 35.013s15.706 35.013 35.013 35.013h301.044v-70.025z" />
</font>
</defs>
</svg>
